<svg viewBox="0 0 27.8428 27.8428" xmlns="http://www.w3.org/2000/svg" xmlns:xlink="http://www.w3.org/1999/xlink" width="27.842773" height="27.842773" fill="none">
	<rect id="Logo" width="27.842779" height="27.842779" x="0.000000" y="0.000000" fill="rgb(255,255,255)" fill-opacity="0" />
	<path id="Vector" d="M6.96069 0C10.8049 0 13.9214 3.11641 13.9214 6.96069L13.9214 0L20.8821 0C24.7263 0 27.8428 3.11641 27.8428 6.96069C27.8428 10.8049 24.7263 13.9214 20.8821 13.9214C24.7263 13.9214 27.8428 17.0378 27.8428 20.8821C27.8428 22.7909 27.0744 24.5203 25.8301 25.7778L25.8041 25.8041L25.781 25.827C24.5232 27.0731 22.7925 27.8428 20.8821 27.8428C18.9847 27.8428 17.2645 27.0836 16.0089 25.8524C15.9926 25.8364 15.9763 25.8202 15.9601 25.8041C15.9449 25.7888 15.9297 25.7735 15.9146 25.7581C14.6818 24.5023 13.9214 22.781 13.9214 20.8821C13.9214 24.7263 10.8049 27.8428 6.96069 27.8428C3.11641 27.8428 0 24.7263 0 20.8821L0 13.9214L6.96069 13.9214C3.11641 13.9214 0 10.8049 0 6.96069C0 3.11641 3.11641 0 6.96069 0ZM12.5293 6.96069C12.5293 10.0361 10.0361 12.5293 6.96069 12.5293L6.96069 1.39214C10.0361 1.39214 12.5293 3.88526 12.5293 6.96069ZM26.4506 20.8821C26.4506 17.8066 23.9575 15.3135 20.8821 15.3135C17.8066 15.3135 15.3135 17.8066 15.3135 20.8821L26.4506 20.8821ZM1.39214 15.3135L1.39214 20.8821C1.39214 23.9575 3.88526 26.4506 6.96069 26.4506C10.0361 26.4506 12.5293 23.9575 12.5293 20.8821L12.5293 15.3135L1.39214 15.3135ZM15.3135 12.5293L15.3135 1.39214L20.8821 1.39214C23.9575 1.39214 26.4506 3.88526 26.4506 6.96069C26.4506 10.0361 23.9575 12.5293 20.8821 12.5293L15.3135 12.5293Z" fill="rgb(38,50,56)" fill-rule="evenodd" />
</svg>
