<svg viewBox="0 0 38.2838 20.8821" xmlns="http://www.w3.org/2000/svg" xmlns:xlink="http://www.w3.org/1999/xlink" width="38.283813" height="20.882080" fill="none">
	<rect id="Logo" width="38.283821" height="20.882084" x="0.000031" y="0.000000" fill="rgb(255,255,255)" fill-opacity="0" />
	<path id="Vector" d="M38.2809 7.42682C38.2849 7.39779 38.2849 7.36845 38.2809 7.33943C38.2847 7.31578 38.2847 7.29166 38.2809 7.26796L37.9973 5.22663C37.9564 4.98241 37.8469 4.75415 37.6813 4.56737L37.6327 4.51177L37.5436 4.42439L32.6338 0.278202L32.7715 0.413241C32.6588 0.281069 32.5174 0.175349 32.3576 0.103869C32.1977 0.0323883 32.0235 -0.00303662 31.8479 0.000207473L30.3571 0.000207473C30.1147 -0.0045012 29.8778 0.0710586 29.6847 0.214669C29.4818 0.0719237 29.2376 -0.00324966 28.9879 0.000207473L27.4971 0.000207473C27.3016 -0.00290242 27.1087 0.0446692 26.938 0.13812C26.7673 0.23157 26.6248 0.367582 26.5249 0.532378C26.3709 0.767756 26.3131 1.05135 26.3629 1.32667L26.5492 2.61341C26.4258 2.54481 26.286 2.50921 26.1441 2.51017L18.9253 2.51017C18.6663 2.51176 18.4132 2.58618 18.1961 2.72462C17.9861 2.85347 17.8175 3.03797 17.71 3.25679L17.1509 2.78816C16.9309 2.58857 16.6405 2.48039 16.3407 2.48634L5.01419 2.48634C4.75427 2.49098 4.50012 2.56216 4.27693 2.69285C3.97159 2.86806 3.74781 3.15295 3.65307 3.48714L0.0557973 15.2823C-0.0114165 15.4767 -0.0180284 15.6863 0.0368082 15.8844C0.0916448 16.0824 0.205447 16.26 0.363675 16.3944C0.404905 16.4286 0.448196 16.4605 0.49331 16.4896C0.49331 16.4896 0.420381 16.442 0.37987 16.4023L5.28968 20.5564C5.49737 20.7439 5.76892 20.8487 6.05121 20.8503L17.4669 20.8503C17.7276 20.8437 17.9819 20.7697 18.2042 20.6358C18.3299 20.5685 18.4424 20.4797 18.5364 20.3737L18.5769 20.3181L18.6417 20.2387L18.6903 20.1513L19.225 20.6041C19.4298 20.7841 19.6954 20.8831 19.9704 20.8821L31.4104 20.8821C31.6708 20.8736 31.9246 20.7998 32.1476 20.6676C32.2705 20.5962 32.3823 20.5079 32.4799 20.4055L32.5203 20.3499L32.5851 20.2705C32.6196 20.2202 32.6495 20.1671 32.6743 20.1116C32.7007 20.0635 32.7224 20.0129 32.7391 19.9607L36.0204 9.19015L36.0204 9.09483C36.0244 9.05787 36.0244 9.02059 36.0204 8.98363L36.0204 8.91216C36.0243 8.88846 36.0243 8.86434 36.0204 8.84064C36.024 8.79042 36.024 8.73999 36.0204 8.68971L37.0737 8.68971C37.1653 8.69796 37.2575 8.69796 37.3491 8.68971L37.422 8.68971C37.4813 8.67238 37.5384 8.64837 37.5922 8.61825L37.6732 8.61825L37.819 8.50705L37.8838 8.45938L37.9973 8.31639L37.9973 8.26878L38.0783 8.13373C38.0738 8.10747 38.0738 8.08058 38.0783 8.05432C38.074 8.04143 38.074 8.02749 38.0783 8.0146C38.0955 7.96803 38.1091 7.92021 38.1188 7.87161C38.115 7.85594 38.115 7.8396 38.1188 7.82394C38.1149 7.80029 38.1149 7.77612 38.1188 7.75247C38.1188 7.75247 38.2809 7.44269 38.2809 7.42682Z" fill="rgb(0,0,0)" fill-rule="nonzero" />
	<path id="Vector" d="M16.6729 3.39186C16.7159 3.42999 16.7459 3.48013 16.759 3.53552C16.772 3.59091 16.7674 3.64888 16.7458 3.70163L13.1567 15.4889C13.1115 15.6176 13.019 15.7252 12.8974 15.7907C12.7984 15.8556 12.6839 15.8939 12.5652 15.9019L1.15764 15.9019C1.06022 15.8973 0.967923 15.8578 0.898374 15.7907C0.857001 15.7532 0.827963 15.7044 0.814973 15.6507C0.801984 15.597 0.805642 15.5406 0.825459 15.4889L4.42273 3.70163C4.46418 3.57131 4.55373 3.46085 4.67389 3.39186C4.77447 3.33162 4.88846 3.29619 5.00607 3.2886L16.4136 3.2886C16.5103 3.28951 16.6029 3.32643 16.6729 3.39186ZM10.7179 13.114L12.865 6.07655L6.85333 6.07655L4.71439 13.114L10.7179 13.114ZM27.5619 3.511C27.6008 3.55534 27.6495 3.5905 27.7042 3.61388C27.7589 3.63726 27.8182 3.64825 27.8779 3.64602L29.3606 3.64602C29.417 3.64657 29.4726 3.63299 29.5223 3.60659C29.5719 3.58018 29.6138 3.54181 29.6441 3.49511C29.6704 3.45863 29.689 3.41733 29.6988 3.37366C29.7085 3.33001 29.7092 3.28487 29.7008 3.24094L29.4092 1.14402C29.3814 1.04697 29.3315 0.957352 29.2634 0.881899C29.2244 0.837556 29.1758 0.802391 29.1211 0.779013C29.0663 0.755636 29.007 0.744652 28.9474 0.746871L27.4647 0.746871C27.4082 0.746333 27.3526 0.759906 27.303 0.786312C27.2533 0.812717 27.2114 0.851083 27.1811 0.897791C27.1244 1.00899 27.1001 1.08047 27.1244 1.14402L27.4242 3.24094C27.4396 3.34305 27.4878 3.43766 27.5619 3.511ZM32.2692 1.12813C32.2414 1.03108 32.1915 0.94146 32.1233 0.866013C32.086 0.821832 32.0388 0.786677 31.9854 0.763258C31.9321 0.739844 31.8739 0.728797 31.8154 0.730985L30.3247 0.730985C30.2692 0.729434 30.2142 0.742642 30.1657 0.769209C30.1172 0.795776 30.077 0.834722 30.0492 0.881899C29.9953 0.952366 29.972 1.04088 29.9844 1.12813L30.2841 3.22505C30.303 3.32608 30.3507 3.41976 30.4219 3.49511C30.4615 3.53859 30.5103 3.57316 30.5648 3.59647C30.6194 3.61977 30.6784 3.63126 30.7379 3.63013L32.2286 3.63013C32.284 3.63085 32.3386 3.6173 32.3869 3.59081C32.4353 3.56432 32.4757 3.52585 32.5041 3.47923C32.5323 3.44369 32.552 3.40241 32.5618 3.35843C32.5717 3.31445 32.5713 3.26888 32.5608 3.22505L32.2692 1.12813ZM26.2575 4.30529L26.1116 3.27271L18.9252 3.27271C18.8124 3.27881 18.7032 3.31447 18.6092 3.37597C18.5496 3.40787 18.4976 3.45209 18.4571 3.50557C18.4165 3.55905 18.3883 3.62052 18.3743 3.68574L17.7747 5.65556C17.7508 5.70479 17.7426 5.76003 17.7513 5.8139C17.76 5.86778 17.7851 5.91779 17.8233 5.95742C17.8917 6.02038 17.9808 6.05708 18.0745 6.06068L26.8085 6.06068L24.6614 13.0981L15.9518 13.0981C15.8395 13.1006 15.7301 13.1336 15.6359 13.1934C15.5213 13.2647 15.4376 13.375 15.4009 13.5032L14.7932 15.473C14.7734 15.5235 14.7682 15.5785 14.7782 15.6317C14.7882 15.685 14.813 15.7345 14.8499 15.7748C14.9161 15.842 15.006 15.8818 15.1011 15.886L26.5411 15.886C26.6594 15.876 26.7734 15.8379 26.8732 15.7748C26.9929 15.7089 27.0826 15.6011 27.1244 15.473L30.4138 4.70243L26.7112 4.70243C26.6524 4.70357 26.5941 4.69287 26.5398 4.67102C26.4854 4.64916 26.4363 4.61659 26.3953 4.57534C26.3283 4.50331 26.2809 4.4159 26.2575 4.32117L26.2575 4.30529Z" fill="rgb(255,255,255)" fill-rule="nonzero" />
</svg>
