<svg viewBox="0 0 33.4113 33.4114" xmlns="http://www.w3.org/2000/svg" xmlns:xlink="http://www.w3.org/1999/xlink" width="33.411316" height="33.411377" fill="none" customFrame="url(#clipPath_5)">
	<defs>
		<clipPath id="clipPath_5">
			<rect width="33.411335" height="33.411335" x="0.000000" y="0.000244" rx="5.568556" fill="rgb(255,255,255)" />
		</clipPath>
		<clipPath id="clipPath_6">
			<rect width="32.715263" height="20.186014" x="0.696106" y="6.854248" fill="rgb(255,255,255)" />
		</clipPath>
	</defs>
	<rect id="Logo" width="33.411335" height="33.411335" x="0.000000" y="0.000244" rx="5.568556" />
	<g id="Logo" clip-path="url(#clipPath_6)" customFrame="url(#clipPath_6)">
		<rect id="Logo" width="32.715263" height="20.186014" x="0.696106" y="6.854248" fill="rgb(255,255,255)" fill-opacity="0" />
		<path id="Vector" d="M31.3208 9.33557C31.3208 9.3591 31.3208 9.38853 31.3147 9.40618C31.284 9.63566 31.284 9.86514 31.3024 10.1005C31.3147 10.1594 31.3269 10.2182 31.376 10.2653C31.4557 10.3535 31.5783 10.3359 31.6273 10.23C31.6519 10.177 31.6519 10.124 31.6396 10.0711C31.5783 9.84749 31.566 9.61213 31.5599 9.38264C31.5599 9.37087 31.5599 9.35322 31.5599 9.33557C31.6273 9.32968 31.6887 9.3238 31.7438 9.3238C31.7868 9.31791 31.8235 9.31203 31.8542 9.29438C31.9461 9.2473 31.9461 9.14727 31.848 9.1002C31.8112 9.08255 31.7622 9.07666 31.7193 9.07666C31.566 9.08255 31.4128 9.08255 31.2595 9.08255C31.2043 9.08255 31.1491 9.08843 31.0939 9.09431C31.0633 9.1002 31.0265 9.1002 31.002 9.11785C30.9591 9.1355 30.9346 9.16492 30.9346 9.20611C30.9407 9.2473 30.9591 9.27084 31.002 9.28849C31.0265 9.30615 31.0572 9.31203 31.0878 9.31203C31.1614 9.31791 31.2411 9.32968 31.3208 9.33557ZM33.0068 9.60624C33.0068 9.61213 33.0129 9.61801 33.0129 9.61801C33.0374 9.77688 33.062 9.92987 33.0803 10.0829C33.0865 10.1358 33.0926 10.1829 33.1294 10.2241C33.2091 10.3241 33.3317 10.3123 33.3869 10.2064C33.4114 10.1535 33.4175 10.1005 33.4053 10.0417C33.3685 9.86514 33.3501 9.68862 33.3133 9.51798C33.2888 9.41206 33.2581 9.31203 33.2275 9.21788C33.2091 9.15904 33.1662 9.11785 33.0926 9.11197C33.019 9.1002 32.9639 9.1355 32.9332 9.18846C32.8964 9.23553 32.8658 9.28261 32.8412 9.33557C32.7983 9.42971 32.7615 9.52386 32.7125 9.61213C32.7063 9.63566 32.7002 9.65331 32.688 9.67096C32.6818 9.6592 32.6757 9.65331 32.6757 9.65331C32.596 9.50621 32.5224 9.3591 32.4427 9.21788C32.4305 9.20611 32.4243 9.19434 32.4182 9.18258C32.3814 9.12962 32.3385 9.1002 32.2711 9.1002C32.2098 9.10608 32.1607 9.14139 32.1301 9.19434C32.1178 9.21788 32.1178 9.23553 32.1117 9.25907C32.0871 9.44737 32.0565 9.63566 32.032 9.82396C32.0197 9.92987 32.0136 10.0358 32.0136 10.1417C32.0074 10.1652 32.0136 10.1947 32.0258 10.2182C32.0381 10.2653 32.0749 10.2947 32.1239 10.3006C32.1852 10.3065 32.2281 10.2888 32.2465 10.2417C32.2649 10.2064 32.2711 10.177 32.2772 10.1476C32.3017 10.0417 32.3201 9.94164 32.3385 9.84161C32.3508 9.78277 32.3569 9.73569 32.3753 9.67096C32.3875 9.6945 32.3998 9.71216 32.4121 9.72981C32.4672 9.80042 32.5224 9.87103 32.5899 9.92987C32.6573 9.97694 32.7125 9.97106 32.7677 9.9181C32.7799 9.90633 32.7861 9.90045 32.7983 9.88868C32.8535 9.8063 32.9209 9.72392 32.9761 9.64154C32.9884 9.62978 32.9945 9.61801 33.0068 9.60624Z" fill="rgb(58,59,123)" fill-rule="nonzero" />
		<path id="Vector" d="M18.8805 9.45123C18.8379 9.56306 18.8298 9.64362 18.8495 9.71059C18.8712 9.80164 18.9276 9.83145 19.0042 9.8083C19.7243 9.63739 21.3033 10.1225 21.888 10.2577C22.0258 10.2861 22.138 10.1153 22.0439 9.96211C21.9066 9.81379 20.3282 9.17877 19.726 9.14414C19.4899 9.13134 19.0679 9.07324 18.8805 9.45123Z" fill="rgb(58,59,123)" fill-rule="nonzero" />
		<path id="Vector" d="M25.0518 7.39536C25.1285 7.43787 25.1714 7.47843 25.1926 7.52374C25.2241 7.58318 25.2075 7.6243 25.1545 7.64529C24.6785 7.86826 24.0451 8.8282 23.7894 9.15928C23.7274 9.23544 23.5845 9.19118 23.5629 9.06593C23.5673 8.92432 24.1288 7.88257 24.4422 7.59883C24.5653 7.48805 24.7687 7.27069 25.0518 7.39536Z" fill="rgb(58,59,123)" fill-rule="nonzero" />
		<path id="Vector" d="M21.2611 6.92297C21.3533 6.85628 21.4491 6.8329 21.4981 6.87625C22.2162 7.46575 22.5971 8.39927 22.8329 9.25389C22.8418 9.2738 22.8424 9.30238 22.8353 9.33218C22.8323 9.35766 22.8129 9.38457 22.7821 9.40539C22.7492 9.42838 22.7209 9.43538 22.7076 9.41557C22.3928 9.00466 20.595 7.40589 21.2611 6.92297Z" fill="rgb(58,59,123)" fill-rule="nonzero" />
		<path id="Vector" d="M6.05253 17.1433C6.22466 17.0203 6.41179 16.918 6.60981 16.8385C6.81699 16.7817 7.03782 16.7911 7.23893 16.8654C7.43998 16.9397 7.61043 17.0748 7.72437 17.2503C7.8263 17.4254 7.86617 17.6275 7.83804 17.8263C7.8099 18.025 7.71526 18.2095 7.56832 18.3522C7.45443 18.4678 7.32511 18.5685 7.18382 18.6517C6.5541 19.0422 5.91877 19.4112 5.28347 19.8017C5.15348 19.8994 5.01557 19.9871 4.87108 20.0638C4.65129 20.169 4.40011 20.1971 4.16097 20.1434C3.92183 20.0897 3.70977 19.9575 3.56146 19.7696C3.45059 19.6365 3.35702 19.4911 3.28281 19.3363C2.68095 18.1222 2.05679 16.9134 1.47721 15.6778C1.20971 15.143 0.992372 14.5278 0.780604 13.9341C0.688983 13.7616 0.671092 13.5617 0.730739 13.3767C0.790387 13.1917 0.922867 13.0364 1.1 12.9437C1.27713 12.851 1.48494 12.8284 1.67923 12.8805C1.87352 12.9326 2.03897 13.0554 2.14038 13.2228C2.45208 13.6203 2.72801 14.0426 2.96516 14.4851C3.56703 15.5548 4.14104 16.6245 4.72061 17.6622C4.75436 17.7195 4.79157 17.7748 4.83207 17.828C5.2683 17.6519 5.67859 17.4218 6.05253 17.1433Z" fill="rgb(58,59,123)" fill-rule="nonzero" />
		<path id="Vector" d="M12.2755 16.7701C10.899 18.3159 8.59183 17.9254 7.43268 15.9357C6.60789 14.5237 6.463 12.1916 8.25748 10.7208C8.64067 10.4128 9.09887 10.203 9.58937 10.111C10.1908 10.0282 10.804 10.1301 11.3415 10.4019C11.879 10.6738 12.3131 11.1018 12.582 11.6247C13.5628 13.3363 13.4235 15.5185 12.2755 16.7701ZM11.7182 13.1651C11.572 12.7445 11.2786 12.3854 10.8878 12.1488C10.6667 11.9976 10.398 11.924 10.1271 11.9406C9.85604 11.9572 9.59928 12.0628 9.3999 12.2398C8.603 12.9191 8.43578 14.529 9.01536 15.4865C9.08925 15.6426 9.19772 15.7813 9.3333 15.893C9.46888 16.0046 9.62825 16.0865 9.80024 16.1329C9.97223 16.1792 10.1527 16.189 10.329 16.1614C10.5053 16.1338 10.6732 16.0696 10.821 15.9732C11.253 15.6517 11.5699 15.2091 11.7277 14.7068C11.8855 14.2045 11.8764 13.6675 11.7015 13.1705L11.7182 13.1651Z" fill="rgb(58,59,123)" fill-rule="nonzero" />
		<path id="Vector" d="M17.8929 13.8392C17.752 13.8683 17.6064 13.87 17.4647 13.8443C17.3231 13.8186 17.1882 13.766 17.0681 13.6895C16.963 13.6318 16.8725 13.5524 16.8032 13.4572C16.7339 13.3619 16.6874 13.253 16.6672 13.1384C16.6469 13.0239 16.6534 12.9064 16.6861 12.7945C16.7188 12.6827 16.777 12.5791 16.8564 12.4913C16.9947 12.315 17.1911 12.1887 17.4136 12.133C17.9947 11.9711 18.5929 11.8725 19.197 11.8388C19.3297 11.824 19.4641 11.8348 19.5924 11.8705C19.7208 11.9063 19.8403 11.9663 19.9442 12.047C20.048 12.1277 20.134 12.2275 20.1971 12.3406C20.2601 12.4536 20.299 12.5776 20.3115 12.7053C20.4857 13.3325 20.5047 13.99 20.3672 14.6255C19.8657 16.6794 18.1381 17.3854 16.1987 16.7275C15.6544 16.5516 15.177 16.2239 14.8278 15.7862C14.3621 15.259 14.0318 14.6343 13.8637 13.9623C13.7275 13.3638 13.7424 12.7428 13.9073 12.151C14.0721 11.5593 14.382 11.0139 14.8111 10.5605C15.2184 10.0677 15.7469 9.67985 16.3492 9.4319C16.7298 9.23057 17.1752 9.17333 17.5976 9.27144C17.6934 9.2969 17.7803 9.34649 17.8495 9.41508C17.9186 9.48368 17.9673 9.56877 17.9907 9.66153C18.014 9.7543 18.011 9.85136 17.9821 9.94266C17.9531 10.0339 17.8992 10.1161 17.826 10.1807C17.6869 10.3016 17.5357 10.4091 17.3746 10.5016C16.8792 10.8045 16.448 11.1947 16.104 11.6516C15.8785 11.9473 15.7232 12.2868 15.6491 12.6463C15.5749 13.0057 15.5837 13.3764 15.6749 13.7323C15.8013 14.2175 16.0818 14.653 16.4774 14.9785C17.7034 16.0483 19.2973 15.0159 19.0186 13.5557C18.6118 13.652 18.2551 13.7537 17.8929 13.8392Z" fill="rgb(58,59,123)" fill-rule="nonzero" />
		<path id="Vector" d="M25.3829 16.8558C23.5718 17.9256 21.5098 16.8559 21.0584 14.6094C20.7296 13.0048 21.3538 10.7584 23.5383 9.90256C24.0031 9.7244 24.5073 9.66184 25.004 9.7207C25.6008 9.82556 26.1482 10.1075 26.5691 10.5269C26.99 10.9462 27.2633 11.4818 27.3501 12.0581C27.718 13.9676 26.882 16.0054 25.3829 16.8558ZM26.0127 13.2562C26.0121 12.8119 25.8484 12.3819 25.5501 12.042C25.3907 11.8318 25.1603 11.6812 24.8981 11.6158C24.6359 11.5505 24.3582 11.5745 24.1123 11.6837C23.1315 12.0902 22.4405 13.5664 22.6913 14.6522C22.7104 14.8226 22.7681 14.9869 22.8603 15.1337C22.9525 15.2805 23.077 15.4061 23.2251 15.5019C23.3732 15.5977 23.5413 15.6613 23.7176 15.6882C23.894 15.7151 24.0744 15.7047 24.2461 15.6578C24.7645 15.4839 25.2134 15.1591 25.5301 14.7285C25.8468 14.298 26.0155 13.7832 26.0127 13.2562Z" fill="rgb(58,59,123)" fill-rule="nonzero" />
		<path id="Vector" d="M29.1817 17.305C29.1543 17.5008 29.0471 17.6781 28.8836 17.798C28.72 17.9178 28.5135 17.9704 28.3095 17.9442C28.1056 17.9179 27.9208 17.815 27.796 17.658C27.671 17.501 27.6163 17.3029 27.6436 17.1071C27.6709 16.9113 27.7782 16.734 27.9417 16.6141C28.1053 16.4943 28.3118 16.4417 28.5157 16.4679C28.7197 16.4942 28.9044 16.5971 29.0294 16.7541C29.1543 16.9111 29.2091 17.1093 29.1817 17.305ZM28.6968 10.0896C28.8028 9.93423 28.9583 9.81592 29.1401 9.7523C29.3219 9.68868 29.5202 9.68317 29.7056 9.73658C29.8939 9.78183 30.0604 9.88781 30.1771 10.0368C30.2937 10.1858 30.3535 10.3687 30.3464 10.5549C30.3219 10.8537 30.2753 11.1504 30.2071 11.4428C30.0232 12.4323 29.8449 13.4218 29.6498 14.4007C29.5607 14.7911 29.4436 15.1655 29.3154 15.5613C29.2709 15.685 29.1964 15.7968 29.0981 15.8876C29.037 15.9559 28.959 16.0082 28.8713 16.0398C28.7835 16.0715 28.6889 16.0813 28.5961 16.0685C28.5033 16.0557 28.4154 16.0207 28.3404 15.9666C28.2655 15.9125 28.206 15.8412 28.1675 15.7592C28.1012 15.6121 28.0652 15.4541 28.0616 15.2939C28.0616 14.6306 28.0616 13.9621 28.1061 13.2935C28.1819 12.3393 28.3309 11.3918 28.552 10.4587C28.578 10.3336 28.627 10.2141 28.6968 10.1056L28.6968 10.0896Z" fill="rgb(58,59,123)" fill-rule="nonzero" />
		<path id="Vector" d="M3.69796 21.6032C3.63216 21.7442 3.61411 21.9014 3.64627 22.0526C3.66766 22.252 3.71464 22.4481 3.78615 22.6365C3.87542 22.8672 3.97532 23.0953 4.0985 23.3764C4.12682 23.4411 4.15643 23.5086 4.1874 23.5797C4.35351 23.9606 4.56194 24.4473 4.83995 25.1518C4.91864 25.3519 4.98851 25.5536 5.05888 25.7568C5.0873 25.8389 5.11583 25.9212 5.14503 26.0037C5.2497 26.2972 5.4298 26.5608 5.66853 26.7697C5.7699 26.8845 5.90436 26.9682 6.05513 27.0101C6.20885 27.0527 6.37233 27.05 6.52441 27.0023C6.67649 26.9546 6.81006 26.864 6.90779 26.7424C7.00359 26.6231 7.06057 26.4795 7.07164 26.3293C7.1338 26.0369 7.11258 25.7337 7.01014 25.4518C6.84754 24.9837 6.66233 24.5149 6.44874 24.0564L6.44776 24.0544C6.0964 23.3371 5.73924 22.6247 5.36519 21.912L5.36239 21.907C5.25288 21.7214 5.11058 21.5554 4.94186 21.4166C4.83233 21.2927 4.68125 21.2091 4.5144 21.1803C4.34399 21.1508 4.16825 21.1805 4.01853 21.2639C3.8769 21.3416 3.76463 21.4603 3.69796 21.6032Z" fill="rgb(58,59,123)" fill-rule="evenodd" />
		<path id="Vector" d="M9.06454 19.8367C8.51361 19.6998 7.93824 19.6798 7.37853 19.7783C6.94501 19.8193 6.51863 19.9152 6.22256 20.1054C6.07198 20.2021 5.95023 20.3263 5.88251 20.4843C5.81441 20.643 5.80572 20.8246 5.86152 21.0269C5.96341 21.3975 6.09572 21.7579 6.22756 22.117L6.24892 22.1752L6.24943 22.1765C6.64641 23.2199 7.04717 24.2598 7.45158 25.2961C7.49874 25.4595 7.56543 25.617 7.6503 25.7656L7.65189 25.7684C7.76401 25.953 7.90782 26.1181 8.07724 26.2568C8.16197 26.333 8.26675 26.3858 8.38037 26.4094C8.4951 26.4331 8.61442 26.4262 8.72533 26.3894C8.83628 26.3525 8.93452 26.2871 9.00939 26.2003C9.08304 26.115 9.13128 26.0121 9.14899 25.9026C9.22208 25.6053 9.19867 25.2935 9.08183 25.0093C9.04537 24.9136 9.01677 24.8159 8.98663 24.7129C8.97658 24.6786 8.96639 24.6437 8.95564 24.6082C9.88134 24.2609 10.8663 23.7939 11.2127 22.7075C11.3483 22.3321 11.3596 21.9256 11.245 21.5437C11.1303 21.1614 10.895 20.8226 10.5715 20.5738C10.1312 20.2256 9.61686 19.974 9.06454 19.8367ZM7.53743 21.1692C7.55566 21.1642 7.57403 21.1595 7.59244 21.1552C8.1951 21.0642 8.81169 21.1854 9.32869 21.4963C9.55653 21.6483 9.64986 21.8173 9.66589 21.9799C9.68243 22.1473 9.61901 22.3287 9.49161 22.5031C9.25087 22.8325 8.81155 23.0961 8.41472 23.1453C8.12542 22.5058 7.83164 21.8405 7.53743 21.1692Z" fill="rgb(58,59,123)" fill-rule="evenodd" />
		<path id="Vector" d="M12.7375 18.6664C13.3936 18.3756 14.2062 18.3253 14.8422 18.5298C15.0024 18.5746 15.1413 18.6714 15.2353 18.8038C15.3287 18.9353 15.3718 19.0938 15.3574 19.2523C15.3564 19.3551 15.3301 19.4563 15.2806 19.5476C15.2302 19.6406 15.1573 19.7205 15.0679 19.7807C14.9786 19.8408 14.8754 19.8795 14.7672 19.8933C14.659 19.9072 14.5489 19.8958 14.4462 19.8602L14.4384 19.8574L14.4311 19.8537C14.3786 19.8273 14.3228 19.8075 14.265 19.7945L14.2614 19.7938C13.814 19.6797 13.3921 19.8687 13.2379 20.1009C13.1644 20.2116 13.1553 20.3233 13.2165 20.425C13.2821 20.5339 13.4429 20.656 13.7683 20.7431C13.8578 20.7667 13.9496 20.7894 14.0426 20.8126C14.3 20.8765 14.5674 20.9429 14.826 21.035L14.827 21.0354C16.0199 21.471 16.4642 22.3733 16.3121 23.2219C16.1616 24.0612 15.4314 24.8249 14.3332 25.0051C13.9336 25.0901 13.5178 25.0736 13.1268 24.9571C12.7349 24.8402 12.3816 24.627 12.1021 24.3386L12.0948 24.331C12.0066 24.2223 11.9472 24.0947 11.9209 23.9592C11.8967 23.8369 11.9094 23.7106 11.9576 23.595C12.0054 23.4801 12.0864 23.3807 12.1908 23.3083C12.3012 23.2262 12.4342 23.1769 12.5734 23.1666C12.7122 23.1564 12.851 23.1853 12.9729 23.2498C13.0946 23.3063 13.2078 23.3783 13.3094 23.4639L13.3113 23.4654C13.491 23.6232 13.7085 23.6643 13.917 23.6262C14.1286 23.5876 14.3276 23.4674 14.4555 23.308C14.5827 23.1496 14.6337 22.9614 14.5731 22.7787C14.5122 22.5947 14.3289 22.3885 13.9263 22.2162C13.821 22.1733 13.7119 22.1387 13.5984 22.105C13.5678 22.0959 13.5367 22.0869 13.5052 22.0777C13.4212 22.0533 13.3349 22.0281 13.2502 22.0003C13.1918 21.9812 13.134 21.9632 13.0767 21.9452C12.9201 21.8963 12.7674 21.8486 12.6204 21.7846C12.3006 21.6801 12.0243 21.4794 11.8327 21.2122C11.6402 20.944 11.5434 20.6233 11.5565 20.298C11.5576 19.5051 12.0779 18.9588 12.7375 18.6664Z" fill="rgb(58,59,123)" fill-rule="nonzero" />
		<path id="Vector" d="M21.0552 18.5819C20.928 18.5222 20.7873 18.4939 20.6459 18.4995C20.5044 18.5051 20.3666 18.5443 20.245 18.6138C20.1241 18.6828 20.0228 18.7795 19.9503 18.8951C19.8838 18.9925 19.8378 19.1014 19.8148 19.2158C19.7919 19.3301 19.7924 19.4475 19.8164 19.5615C19.8401 19.7081 19.8664 19.8505 19.8923 19.9911C19.9353 20.2236 19.977 20.4509 20.0046 20.6827L20.0056 20.6886C20.0684 21.0521 20.1013 21.4197 20.1042 21.7881L20.1045 21.7933C20.1259 22.1912 19.9847 22.5813 19.7111 22.8808L19.7067 22.8862C19.6177 22.9957 19.4987 23.0793 19.3629 23.1276C19.2272 23.1759 19.0801 23.187 18.9382 23.1596C18.7963 23.1323 18.6651 23.0676 18.5593 22.9728C18.4535 22.8779 18.3771 22.7564 18.339 22.6224C18.2577 22.3399 18.2107 22.0494 18.1987 21.7566L18.3376 19.6341C18.3396 19.6064 18.342 19.578 18.3444 19.5493C18.3496 19.4848 18.3551 19.4192 18.3573 19.3579C18.3606 19.2678 18.3578 19.1751 18.3359 19.0874C18.3135 18.9978 18.2709 18.9125 18.1954 18.8399C18.1206 18.768 18.0197 18.7149 17.8927 18.6788C17.663 18.615 17.4687 18.617 17.3069 18.683C17.1449 18.7489 17.034 18.8713 16.9555 19.0127C16.8776 19.1529 16.8275 19.3189 16.7896 19.4851C16.7616 19.6085 16.739 19.738 16.7175 19.8613C16.7101 19.9038 16.7029 19.9455 16.6955 19.986L16.6953 19.9872C16.5805 20.6632 16.5464 21.3496 16.5935 22.0331C16.6023 22.4025 16.6825 22.7671 16.8302 23.1083C16.9968 23.5485 17.2986 23.9299 17.6957 24.2022C18.0937 24.475 18.5686 24.6254 19.0575 24.6333C19.5465 24.6412 20.0264 24.5064 20.4338 24.2467C20.8405 23.9874 21.1556 23.6157 21.3376 23.1808C21.5922 22.6268 21.7118 22.0244 21.6871 21.4193C21.6721 20.9776 21.6471 20.5325 21.6222 20.0897C21.6099 19.8724 21.5977 19.6557 21.5868 19.4402C21.5813 19.2242 21.507 19.0149 21.374 18.8406C21.2917 18.7303 21.1822 18.6414 21.0552 18.5819Z" fill="rgb(58,59,123)" fill-rule="nonzero" />
		<path id="Vector" d="M25.5579 21.9098C25.545 21.9256 25.5314 21.9418 25.5172 21.9588C25.4137 21.3859 25.3178 20.8131 25.2218 20.2395C25.1873 20.0337 25.1527 19.827 25.1179 19.621L25.1139 19.598L25.1012 19.5781C25.0773 19.5407 25.0749 19.5041 25.0749 19.4259L25.0749 19.4168L25.0734 19.4079C25.0474 19.2465 24.9713 19.0962 24.8551 18.9768C24.7392 18.8578 24.5887 18.7749 24.4231 18.739C24.2578 18.6998 24.0841 18.7085 23.9238 18.7638C23.764 18.819 23.6246 18.9182 23.5232 19.0489C23.4389 19.1492 23.3698 19.2605 23.318 19.3795C23.2005 19.6356 23.0819 19.8925 22.963 20.15L22.9609 20.1544C22.6641 20.7973 22.3653 21.4445 22.0752 22.0968L22.0743 22.0989C21.8962 22.5218 21.7491 22.9675 21.6026 23.4118C21.5734 23.5004 21.5441 23.5891 21.5146 23.6775C21.4617 23.8177 21.4386 23.9666 21.4465 24.1155C21.4369 24.2487 21.4701 24.3817 21.5418 24.4963C21.6149 24.6133 21.7244 24.7054 21.8548 24.7595C21.9931 24.8177 22.1476 24.83 22.2941 24.7946C22.4402 24.7593 22.5699 24.6783 22.6629 24.5646C22.7816 24.4244 22.8837 24.2715 22.967 24.1096C23.2128 23.6271 23.4477 23.1386 23.6815 22.6523C23.772 22.4642 23.8599 22.2958 23.9599 22.1123C23.9668 22.1349 23.9738 22.157 23.981 22.1791C24.0858 22.6221 24.2628 23.0463 24.5053 23.4364C24.5512 23.519 24.6151 23.5912 24.6927 23.6481C24.7712 23.7056 24.8618 23.746 24.9583 23.7665C25.0547 23.787 25.1546 23.7871 25.2511 23.7668C25.3474 23.7465 25.4383 23.7061 25.5169 23.6488L25.6723 23.5371L26.8792 22.5614L26.8078 22.9979C26.7099 23.598 26.6127 24.193 26.5094 24.7882C26.4418 25.052 26.4419 25.3275 26.5097 25.5912C26.539 25.7396 26.6138 25.8762 26.7245 25.9837C26.8361 26.092 26.979 26.1656 27.1347 26.1949C27.2904 26.2243 27.4518 26.208 27.5977 26.1482C27.7416 26.0894 27.8639 25.9909 27.9495 25.8655C28.1485 25.6285 28.2723 25.3416 28.3063 25.039C28.3576 24.6116 28.4154 24.1784 28.4733 23.7453C28.54 23.2461 28.6067 22.747 28.663 22.2576L28.6632 22.2561C28.7174 21.7203 28.7437 21.1823 28.7418 20.6439C28.7537 20.4738 28.7096 20.3043 28.6155 20.1595C28.5212 20.0142 28.3814 19.9012 28.2163 19.8365C28.0445 19.7616 27.8522 19.7415 27.6676 19.7794C27.4843 19.817 27.3183 19.9098 27.1938 20.0442C26.9712 20.2418 26.7624 20.4532 26.5686 20.6771L26.5673 20.6787C26.3559 20.9316 26.1458 21.1895 25.9371 21.4457C25.8103 21.6014 25.6837 21.7568 25.5579 21.9098Z" fill="rgb(58,59,123)" fill-rule="nonzero" />
	</g>
</svg>
