<svg viewBox="0 0 36.1956 13.9214" xmlns="http://www.w3.org/2000/svg" xmlns:xlink="http://www.w3.org/1999/xlink" width="36.195618" height="13.921387" fill="none">
	<rect id="Logo" width="36.195614" height="13.921390" x="0.000000" y="-0.000244" fill="rgb(255,255,255)" fill-opacity="0" />
	<path id="Vector" d="M8.59168 -0.000244141C7.17815 -0.000244141 5.82253 0.561275 4.82302 1.56079L1.56103 4.82277C0.561519 5.82228 0 7.1779 0 8.59143C0 11.535 2.38619 13.9211 5.32971 13.9211C6.74324 13.9211 8.09886 13.3596 9.09837 12.3601L11.3547 10.1038L17.9289 3.52957C18.4063 3.05221 19.0537 2.78403 19.7288 2.78403C20.859 2.78403 21.8172 3.52067 22.1494 4.54002L24.2242 2.46522C23.2777 0.982764 21.6181 -0.000244141 19.7288 -0.000244141C18.3153 -0.000244141 16.9596 0.561275 15.9601 1.56079L7.12961 10.3913C6.65224 10.8687 6.00481 11.1369 5.32971 11.1369C3.9239 11.1369 2.78428 9.99726 2.78428 8.59143C2.78428 7.91634 3.05245 7.2689 3.52981 6.79154L6.79178 3.52957C7.26915 3.05221 7.91658 2.78403 8.59168 2.78403C9.72196 2.78403 10.6801 3.5207 11.0123 4.54008L13.0872 2.46527C12.1407 0.982792 10.481 -0.000244141 8.59168 -0.000244141Z" fill="rgb(57,65,73)" fill-rule="nonzero" />
	<path id="Vector" d="M18.2667 10.3913C17.7894 10.8687 17.1419 11.1369 16.4668 11.1369C15.3367 11.1369 14.3786 10.4004 14.0463 9.38124L11.9716 11.456C12.9181 12.9382 14.5777 13.9211 16.4668 13.9211C17.8804 13.9211 19.236 13.3596 20.2355 12.3601L29.066 3.52957C29.5434 3.05221 30.1908 2.78403 30.8659 2.78403C32.2717 2.78403 33.4113 3.92366 33.4113 5.32947C33.4113 6.00456 33.1432 6.652 32.6658 7.12936L29.4038 10.3913C28.9265 10.8687 28.279 11.1369 27.6039 11.1369C26.4737 11.1369 25.5156 10.4003 25.1833 9.38101L23.1086 11.4558C24.0551 12.9382 25.7147 13.9211 27.6039 13.9211C29.0175 13.9211 30.3731 13.3596 31.3726 12.3601L34.6346 9.09813C35.6341 8.09862 36.1956 6.743 36.1956 5.32947C36.1956 2.38595 33.8094 -0.000244141 30.8659 -0.000244141C29.4524 -0.000244141 28.0967 0.561275 27.0972 1.56079L18.2667 10.3913Z" fill="rgb(57,65,73)" fill-rule="nonzero" />
</svg>
