<svg viewBox="0 0 45.2445 38.98" xmlns="http://www.w3.org/2000/svg" xmlns:xlink="http://www.w3.org/1999/xlink" width="45.244507" height="38.979980" fill="none" customFrame="#000000">
	<defs>
		<clipPath id="clipPath_8">
			<rect width="33.411335" height="33.411335" x="0.000000" y="0.000000" fill="rgb(255,255,255)" />
		</clipPath>
	</defs>
	<rect id="Icon" width="45.244522" height="38.979889" x="0.000000" y="0.000000" />
	<path id="Rectangle 157" d="M31.3231 0C33.2453 0 34.8035 1.5582 34.8035 3.48035L34.8035 27.1467C34.8035 30.991 31.6871 34.1074 27.8428 34.1074L3.48035 34.1074C1.5582 34.1074 0 32.5492 0 30.6271L0 12.5293C0 5.60954 5.60954 0 12.5293 0L31.3231 0Z" fill="rgb(232,245,233)" fill-rule="evenodd" transform="matrix(-1,-8.74228e-08,8.74228e-08,-1,45.2445,38.9797)" />
	<g id="Icon" customFrame="url(#clipPath_8)">
		<rect id="Icon" width="33.411335" height="33.411335" x="0.000000" y="0.000000" />
		<g id="Group 1">
			<path id="Vector" d="M18.7356 13.2328C18.5184 13.2328 18.3419 13.0565 18.3419 12.839L18.3419 12.1699C18.3419 11.9527 18.5181 11.7761 18.7356 11.7761C18.9528 11.7761 19.1294 11.9524 19.1294 12.1699L19.1294 12.839C19.1294 13.0565 18.9528 13.2328 18.7356 13.2328Z" fill="rgb(15.9198,61.625,18.6485)" fill-rule="nonzero" />
			<path id="Vector" d="M17.0802 13.2328C16.863 13.2328 16.6865 13.0565 16.6865 12.839L16.6865 12.1699C16.6865 11.9527 16.8627 11.7761 17.0802 11.7761C17.2974 11.7761 17.474 11.9524 17.474 12.1699L17.474 12.839C17.4737 13.0565 17.2977 13.2328 17.0802 13.2328Z" fill="rgb(15.9198,61.625,18.6485)" fill-rule="nonzero" />
			<path id="Vector" d="M15.4249 13.2328C15.2078 13.2328 15.0312 13.0565 15.0312 12.839L15.0312 12.1699C15.0312 11.9527 15.2075 11.7761 15.4249 11.7761C15.6421 11.7761 15.8187 11.9524 15.8187 12.1699L15.8187 12.839C15.8187 13.0565 15.6424 13.2328 15.4249 13.2328Z" fill="rgb(15.9198,61.625,18.6485)" fill-rule="nonzero" />
			<path id="Vector" d="M18.7356 15.9691C18.5184 15.9691 18.3419 15.7928 18.3419 15.5753L18.3419 14.9064C18.3419 14.6893 18.5181 14.5127 18.7356 14.5127C18.9528 14.5127 19.1294 14.689 19.1294 14.9064L19.1294 15.5753C19.1294 15.7928 18.9528 15.9691 18.7356 15.9691Z" fill="rgb(15.9198,61.625,18.6485)" fill-rule="nonzero" />
			<path id="Vector" d="M17.0802 15.9691C16.863 15.9691 16.6865 15.7928 16.6865 15.5753L16.6865 14.9064C16.6865 14.6893 16.8627 14.5127 17.0802 14.5127C17.2974 14.5127 17.474 14.689 17.474 14.9064L17.474 15.5753C17.4737 15.7928 17.2977 15.9691 17.0802 15.9691Z" fill="rgb(15.9198,61.625,18.6485)" fill-rule="nonzero" />
			<path id="Vector" d="M15.4249 15.9691C15.2078 15.9691 15.0312 15.7928 15.0312 15.5753L15.0312 14.9064C15.0312 14.6893 15.2075 14.5127 15.4249 14.5127C15.6421 14.5127 15.8187 14.689 15.8187 14.9064L15.8187 15.5753C15.8187 15.7928 15.6424 15.9691 15.4249 15.9691Z" fill="rgb(15.9198,61.625,18.6485)" fill-rule="nonzero" />
			<path id="Vector" d="M18.7356 18.7057C18.5184 18.7057 18.3419 18.5294 18.3419 18.3119L18.3419 17.6428C18.3419 17.4256 18.5181 17.249 18.7356 17.249C18.9528 17.249 19.1294 17.4253 19.1294 17.6428L19.1294 18.3119C19.1294 18.5294 18.9528 18.7057 18.7356 18.7057Z" fill="rgb(15.9198,61.625,18.6485)" fill-rule="nonzero" />
			<path id="Vector" d="M17.0802 18.7057C16.863 18.7057 16.6865 18.5294 16.6865 18.3119L16.6865 17.6428C16.6865 17.4256 16.8627 17.249 17.0802 17.249C17.2974 17.249 17.474 17.4253 17.474 17.6428L17.474 18.3119C17.4737 18.5294 17.2977 18.7057 17.0802 18.7057Z" fill="rgb(15.9198,61.625,18.6485)" fill-rule="nonzero" />
			<path id="Vector" d="M15.4249 18.7057C15.2078 18.7057 15.0312 18.5294 15.0312 18.3119L15.0312 17.6428C15.0312 17.4256 15.2075 17.249 15.4249 17.249C15.6421 17.249 15.8187 17.4253 15.8187 17.6428L15.8187 18.3119C15.8187 18.5294 15.6424 18.7057 15.4249 18.7057Z" fill="rgb(15.9198,61.625,18.6485)" fill-rule="nonzero" />
			<path id="Vector" d="M18.7356 21.4415C18.5184 21.4415 18.3419 21.2652 18.3419 21.0478L18.3419 20.3786C18.3419 20.1614 18.5181 19.9849 18.7356 19.9849C18.9528 19.9849 19.1294 20.1611 19.1294 20.3786L19.1294 21.0478C19.1294 21.2652 18.9528 21.4415 18.7356 21.4415Z" fill="rgb(15.9198,61.625,18.6485)" fill-rule="nonzero" />
			<path id="Vector" d="M17.0802 21.4415C16.863 21.4415 16.6865 21.2652 16.6865 21.0478L16.6865 20.3786C16.6865 20.1614 16.8627 19.9849 17.0802 19.9849C17.2974 19.9849 17.474 20.1611 17.474 20.3786L17.474 21.0478C17.4737 21.2652 17.2977 21.4415 17.0802 21.4415Z" fill="rgb(15.9198,61.625,18.6485)" fill-rule="nonzero" />
			<path id="Vector" d="M15.4249 21.4415C15.2078 21.4415 15.0312 21.2652 15.0312 21.0478L15.0312 20.3786C15.0312 20.1614 15.2075 19.9849 15.4249 19.9849C15.6421 19.9849 15.8187 20.1611 15.8187 20.3786L15.8187 21.0478C15.8187 21.2652 15.6424 21.4415 15.4249 21.4415Z" fill="rgb(15.9198,61.625,18.6485)" fill-rule="nonzero" />
			<path id="Vector" d="M18.7356 24.1778C18.5184 24.1778 18.3419 24.0015 18.3419 23.7841L18.3419 23.1152C18.3419 22.898 18.5181 22.7214 18.7356 22.7214C18.9528 22.7214 19.1294 22.8977 19.1294 23.1152L19.1294 23.7841C19.1294 24.0012 18.9528 24.1778 18.7356 24.1778Z" fill="rgb(15.9198,61.625,18.6485)" fill-rule="nonzero" />
			<path id="Vector" d="M17.0802 24.1778C16.863 24.1778 16.6865 24.0015 16.6865 23.7841L16.6865 23.1152C16.6865 22.898 16.8627 22.7214 17.0802 22.7214C17.2974 22.7214 17.474 22.8977 17.474 23.1152L17.474 23.7841C17.4737 24.0012 17.2977 24.1778 17.0802 24.1778Z" fill="rgb(15.9198,61.625,18.6485)" fill-rule="nonzero" />
			<path id="Vector" d="M15.4249 24.1778C15.2078 24.1778 15.0312 24.0015 15.0312 23.7841L15.0315 23.1152C15.0315 22.898 15.2077 22.7214 15.4252 22.7214C15.6424 22.7214 15.819 22.8977 15.819 23.1152L15.819 23.7841C15.8187 24.0012 15.6424 24.1778 15.4249 24.1778Z" fill="rgb(15.9198,61.625,18.6485)" fill-rule="nonzero" />
			<path id="Vector" d="M4.17672 26.9011C4.17672 27.1183 4.353 27.2949 4.57047 27.2949L28.5485 27.2949C28.7657 27.2949 28.9422 27.1186 28.9422 26.9011C28.9422 26.6839 28.766 26.5074 28.5485 26.5074L27.8206 26.5074L27.8206 15.2023C27.8206 14.9851 27.6443 14.8085 27.4269 14.8085L20.9982 14.8088L20.9982 6.65846C20.9982 6.52062 20.9262 6.39322 20.8087 6.32182C20.6915 6.25016 20.5448 6.24577 20.4229 6.30919L13.114 10.1146C12.9835 10.1824 12.9023 10.317 12.9023 10.4639L12.9023 17.583L5.82878 17.583C5.61159 17.583 5.43503 17.7593 5.43503 17.9768L5.43503 26.5074L4.56959 26.5074C4.3524 26.5072 4.17639 26.6834 4.17639 26.9009L4.17672 26.9011ZM20.9983 20.7723L27.0335 20.7723L27.0335 26.5077L20.9983 26.5074L20.9983 20.7723ZM20.9983 18.0361L27.0335 18.0361L27.0335 19.9851L20.9983 19.9848L20.9983 18.0361ZM20.9983 15.5959L27.0335 15.5959L27.0335 17.2492L20.9983 17.2492L20.9983 15.5959ZM13.6893 10.7029L20.2106 7.30749L20.2106 26.5071L13.6893 26.5071L13.6893 10.7029ZM8.16896 23.3625C8.16896 22.5454 8.81641 21.8804 9.61241 21.8804C10.4084 21.8804 11.0561 22.5451 11.0561 23.3625L11.0561 26.5076L8.16896 26.5076L8.16896 23.3625ZM6.2225 18.3704L12.9021 18.3704L12.9021 26.5074L11.8436 26.5074L11.8436 23.3624C11.8436 22.1111 10.8431 21.093 9.61241 21.093C8.3823 21.093 7.38176 22.1109 7.38176 23.3624L7.38176 26.5074L6.2225 26.5074L6.2225 18.3704Z" fill="rgb(15.9198,61.625,18.6485)" fill-rule="nonzero" />
		</g>
	</g>
</svg>
