<svg viewBox="0 0 33.4113 33.4114" xmlns="http://www.w3.org/2000/svg" xmlns:xlink="http://www.w3.org/1999/xlink" width="33.411316" height="33.411377" fill="none" customFrame="#000000">
	<rect id="Icon" width="33.411335" height="33.411335" x="0.000000" y="0.000000" />
	<g id="Group 2">
		<path id="Vector" d="M7.75474 1.67111C7.58714 1.67111 7.43151 1.71719 7.29327 1.79132L7.29327 1.78935C7.29327 1.52565 7.19078 1.27801 7.00481 1.09253C6.81884 0.906561 6.57139 0.804066 6.30799 0.804066C6.13793 0.804066 5.98033 0.851296 5.8406 0.927388C5.8265 0.686155 5.73007 0.460673 5.55804 0.288463C5.37208 0.102495 5.12462 0 4.86106 0C4.33741 0 3.91218 0.411621 3.88153 0.927551C3.7195 0.839981 3.53632 0.794061 3.34739 0.806198C2.83227 0.839981 2.42887 1.28505 2.42887 1.81969L2.42887 6.25132L1.92424 5.37708C1.73204 5.0427 1.37226 4.83509 0.984893 4.83509C0.796137 4.83509 0.609678 4.88462 0.444542 4.97924C0.238897 5.09846 0.0917953 5.28984 0.0306233 5.5188C-0.0308721 5.74789 0.000940666 5.98748 0.119835 6.19282C0.119999 6.19282 1.77091 9.05171 1.87162 9.22733C1.88359 9.25373 1.91771 9.33031 1.94673 9.39558C1.97445 9.4579 1.99823 9.52185 2.02102 9.58614C2.51888 10.9917 3.75165 11.8648 5.2384 11.8648C7.16907 11.8648 8.73979 10.1616 8.73979 8.06803L8.73995 2.65654C8.73995 2.39317 8.63762 2.1457 8.45182 1.95955C8.26585 1.77358 8.01839 1.67109 7.7547 1.67109L7.75474 1.67111ZM5.23842 11.3413C3.9609 11.3413 2.94267 10.6197 2.51449 9.41105C2.48711 9.3343 2.45857 9.25756 2.42528 9.18277C2.32869 8.96614 2.32869 8.96614 2.30147 8.93498L2.29786 8.9381C2.16306 8.68375 1.76259 7.99023 0.573152 5.9308C0.524281 5.84634 0.511325 5.74827 0.536253 5.65447C0.561508 5.56067 0.622023 5.48162 0.705823 5.43325C0.965915 5.28385 1.32212 5.38028 1.47036 5.63856L2.46399 7.35886C2.52336 7.46136 2.6434 7.5117 2.75852 7.48054C2.87299 7.44988 2.95252 7.34607 2.95252 7.22767L2.95252 1.81954C2.95252 1.56436 3.14505 1.34413 3.38171 1.32856C3.51815 1.32134 3.6454 1.36709 3.74101 1.46254C3.82793 1.54945 3.87581 1.66523 3.87581 1.78904L3.87581 5.32604C3.87581 5.47068 3.99307 5.58793 4.13771 5.58793C4.28235 5.58793 4.39961 5.47084 4.39961 5.32604L4.39944 0.985088C4.39944 0.730572 4.60657 0.523453 4.86108 0.523453C4.98473 0.523453 5.10084 0.571338 5.18792 0.658254C5.27483 0.745333 5.32272 0.861438 5.32272 0.985092L5.32272 5.32604C5.32272 5.47068 5.43981 5.58794 5.58461 5.58794C5.72926 5.58794 5.84651 5.47084 5.84651 5.32604L5.84635 1.82973L5.84635 1.78906C5.84635 1.53471 6.05347 1.32759 6.30815 1.32759C6.43164 1.32759 6.54741 1.37564 6.63499 1.46289C6.7219 1.54964 6.76979 1.66542 6.76979 1.78923L6.76979 5.32622C6.76979 5.47086 6.88688 5.58812 7.03169 5.58812C7.17633 5.58812 7.29358 5.47103 7.29358 5.32622L7.29326 2.65641C7.29326 2.40173 7.50038 2.19461 7.75472 2.19461C7.87854 2.19461 7.99431 2.24266 8.08123 2.32941C8.16847 2.41665 8.21619 2.53276 8.21619 2.65641L8.21636 8.0679C8.21636 9.87263 6.88049 11.3412 5.2384 11.3412L5.23842 11.3413Z" fill="rgb(76,175,79)" fill-rule="nonzero" transform="matrix(1,0,0,-1,11.9521,18.1295)" />
		<path id="Vector" d="M8.22136 1.7878C8.07972 1.71157 7.92043 1.67109 7.75474 1.67109L7.7547 1.67109L7.75474 1.67111L7.7547 1.67111C7.73416 1.67111 7.7138 1.6718 7.69362 1.67315C7.54923 1.68283 7.41456 1.72628 7.29327 1.79132L7.29327 1.78935C7.29327 1.64416 7.2622 1.50383 7.20323 1.37607C7.1551 1.27179 7.08838 1.17588 7.00481 1.09253C6.95939 1.04711 6.91031 1.00668 6.85823 0.971497C6.80331 0.934403 6.74506 0.903151 6.68424 0.878066C6.56654 0.829517 6.43924 0.804066 6.30799 0.804066C6.28528 0.804066 6.2628 0.804908 6.24055 0.806548C6.09616 0.817193 5.96168 0.861456 5.8406 0.927388C5.83693 0.864638 5.8277 0.802954 5.813 0.742996C5.79407 0.665721 5.76608 0.591314 5.72929 0.521188C5.68488 0.436548 5.62765 0.358144 5.55804 0.288463C5.51987 0.250285 5.4791 0.215625 5.43613 0.184647C5.26979 0.0647314 5.07051 0 4.86106 0C4.64273 0 4.44151 0.0715551 4.27886 0.192391C4.16156 0.279539 4.06433 0.392318 3.99521 0.522376C3.9303 0.644505 3.89018 0.78187 3.88153 0.927551C3.7582 0.860893 3.62261 0.818368 3.48155 0.807212C3.4373 0.803712 3.39251 0.8033 3.34739 0.806198C3.24026 0.813224 3.13796 0.838039 3.04312 0.877749C2.68193 1.02898 2.42887 1.39624 2.42887 1.81969L2.42887 6.25132L2.02443 5.55065L1.92424 5.37708C1.82286 5.20071 1.67486 5.0596 1.50077 4.96563C1.34482 4.88145 1.16794 4.83509 0.984893 4.83509C0.796137 4.83509 0.609678 4.88462 0.444542 4.97924C0.238897 5.09846 0.0917953 5.28984 0.0306233 5.5188C-0.0308721 5.74789 0.000940666 5.98748 0.119835 6.19282C0.119999 6.19282 1.77091 9.05171 1.87162 9.22733C1.87696 9.2391 1.8867 9.26085 1.89843 9.28713C1.91301 9.31978 1.93065 9.35942 1.94673 9.39558C1.97445 9.4579 1.99823 9.52185 2.02102 9.58614C2.09453 9.79367 2.18406 9.98959 2.28806 10.1728C2.88845 11.2305 3.97116 11.8648 5.2384 11.8648C5.60908 11.8648 5.9665 11.802 6.30207 11.6857C7.71431 11.1964 8.73979 9.75963 8.73979 8.06803L8.73995 2.65654C8.73995 2.63733 8.73941 2.61822 8.73833 2.5992C8.72459 2.35741 8.62407 2.13213 8.45182 1.95955C8.38271 1.89045 8.30512 1.83287 8.22136 1.7878ZM8.21274 2.5992C8.20035 2.49725 8.15487 2.40305 8.08123 2.32941C7.99431 2.24266 7.87854 2.19461 7.75472 2.19461L7.7547 2.19461C7.73547 2.19461 7.71651 2.1958 7.69788 2.1981C7.47023 2.22622 7.29326 2.421 7.29326 2.65641L7.29326 2.72892L7.29328 2.8444L7.29351 4.71139L7.29358 5.32622C7.29358 5.34446 7.29172 5.36226 7.28818 5.37944C7.26361 5.49866 7.15811 5.58812 7.03169 5.58812C6.90263 5.58812 6.79558 5.49497 6.77383 5.37231C6.77117 5.35735 6.76979 5.34195 6.76979 5.32622L6.76979 1.78923C6.76979 1.75455 6.76603 1.72051 6.75872 1.68755C6.73991 1.60284 6.69756 1.52534 6.63499 1.46289C6.54741 1.37564 6.43164 1.32759 6.30815 1.32759C6.28874 1.32759 6.2696 1.3288 6.25081 1.33113C6.08452 1.35181 5.9454 1.46119 5.88246 1.61021C5.85921 1.66524 5.84635 1.72568 5.84635 1.78906L5.84635 1.82973L5.84635 1.85824L5.84636 1.98104L5.84648 4.71122L5.84651 5.32604C5.84651 5.34179 5.84512 5.35721 5.84247 5.3722C5.82068 5.49493 5.71352 5.58794 5.58461 5.58794C5.45584 5.58794 5.34898 5.4952 5.3269 5.37293C5.32415 5.35772 5.32272 5.34205 5.32272 5.32604L5.32272 0.985092C5.32272 0.933138 5.31427 0.882517 5.29802 0.834821C5.28708 0.802726 5.27262 0.771956 5.25482 0.742996C5.23612 0.712561 5.21374 0.684126 5.18792 0.658254C5.10084 0.571338 4.98473 0.523453 4.86108 0.523453C4.6593 0.523453 4.48731 0.653634 4.4247 0.834407C4.40834 0.881652 4.39944 0.932353 4.39944 0.985088L4.39945 1.05509L4.39949 2.26247L4.39958 4.7112L4.39961 5.32604C4.39961 5.34205 4.39817 5.35773 4.39543 5.37294C4.37334 5.49531 4.26636 5.58793 4.13771 5.58793C4.01023 5.58793 3.90403 5.49685 3.88062 5.37621C3.87747 5.35997 3.87581 5.3432 3.87581 5.32604L3.87581 1.78904C3.87581 1.66523 3.82793 1.54945 3.74101 1.46254C3.66672 1.38838 3.57333 1.34422 3.47136 1.33159C3.4421 1.32797 3.41213 1.32695 3.38171 1.32856C3.14505 1.34413 2.95252 1.56436 2.95252 1.81954L2.95252 7.22767C2.95252 7.34607 2.87299 7.44988 2.75852 7.48054C2.6561 7.50826 2.54979 7.47148 2.48577 7.39085C2.47783 7.38085 2.47054 7.37017 2.46399 7.35886L2.14755 6.811L2.02443 6.59784L1.82428 6.25132L1.50077 5.69122L1.47036 5.63856C1.45697 5.61524 1.44189 5.59323 1.42533 5.57261C1.25857 5.36486 0.942427 5.29734 0.705823 5.43325C0.622023 5.48162 0.561508 5.56067 0.536253 5.65447C0.511325 5.74827 0.524281 5.84634 0.573152 5.9308C0.617981 6.00841 0.661689 6.08409 0.704305 6.15788C1.14981 6.92926 1.4759 7.49402 1.71458 7.90884C1.75649 7.98168 1.79571 8.0499 1.8324 8.1138C2.09711 8.57479 2.23058 8.81115 2.29786 8.9381L2.30147 8.93498L2.30218 8.93581L2.30878 8.94345C2.32961 8.9682 2.33813 8.9873 2.42528 9.18277C2.45857 9.25756 2.48711 9.3343 2.51449 9.41105C2.56569 9.55556 2.62532 9.6931 2.69281 9.82328C3.03039 10.4743 3.56481 10.9412 4.22534 11.1738C4.53738 11.2837 4.87755 11.3413 5.23842 11.3413L5.2384 11.3412C5.55918 11.3412 5.86828 11.2852 6.15801 11.1815C7.35143 10.7546 8.21636 9.52008 8.21636 8.0679L8.21628 5.4467L8.2162 2.72935L8.21619 2.65641C8.21619 2.63713 8.21503 2.61803 8.21274 2.5992Z" fill="rgb(76,175,79)" fill-rule="evenodd" transform="matrix(1,0,0,-1,11.9521,18.1295)" />
		<path id="Vector" d="M3.87081 6.92728L7.67116 9.20711C8.12935 9.48229 8.7189 9.36536 9.01278 8.94079C9.12003 8.78614 9.1748 8.60591 9.18333 8.42239C9.32502 8.49635 9.47917 8.53653 9.63611 8.53653C9.71646 8.53653 9.79715 8.52653 9.87685 8.50669C10.1322 8.44289 10.3473 8.28333 10.4827 8.05769C10.6181 7.83171 10.6576 7.56687 10.5938 7.31183C10.535 7.07585 10.3915 6.87724 10.1919 6.74096C10.3314 6.65864 10.4518 6.5463 10.5374 6.4033C10.6729 6.17732 10.7124 5.91261 10.6488 5.65728C10.585 5.40227 10.4254 5.18712 10.1994 5.05148L10.1981 5.05066C10.3352 4.9685 10.4535 4.85731 10.5381 4.71644C10.6737 4.49046 10.7132 4.22563 10.6494 3.97029C10.5855 3.71512 10.4259 3.49997 10.2003 3.36449L5.55999 0.580704C4.69394 0.061344 3.69275 -0.11792 2.74127 0.0764155C1.78127 0.272552 0.986212 0.824368 0.502788 1.63026C-0.262251 2.90529 -0.147599 4.41174 0.801419 5.5615C0.844879 5.61398 0.887679 5.66744 0.926546 5.72287C0.967709 5.78141 1.01576 5.85029 1.03216 5.87391C1.13039 6.04938 2.73327 8.9373 2.7331 8.93696C2.89496 9.22903 3.19835 9.39436 3.51124 9.39419C3.65719 9.39419 3.80528 9.35828 3.94189 9.28251C4.10687 9.19035 4.24544 9.05604 4.34236 8.89417C4.54161 8.56209 4.54867 8.14652 4.36106 7.8102L3.87081 6.92728ZM3.89361 8.62495C3.84277 8.70973 3.77291 8.7773 3.68747 8.82518C3.51085 8.92292 3.28848 8.85929 3.19124 8.68333C2.04429 6.61701 1.65331 5.91285 1.50243 5.66226L1.50587 5.66144C1.49324 5.61945 1.49324 5.61945 1.35516 5.42217C1.30826 5.35543 1.25726 5.29131 1.20528 5.22817C0.389228 4.23945 0.294475 2.99523 0.951578 1.89962C1.35861 1.22102 2.03132 0.755775 2.84585 0.589484C3.66925 0.422047 4.5371 0.577841 5.29034 1.02979L9.93104 3.81371C10.037 3.87717 10.1118 3.97803 10.1416 4.09758C10.1715 4.21697 10.1529 4.34111 10.0893 4.44704C9.95843 4.66515 9.67423 4.73682 9.45612 4.60546L7.16679 3.23202C7.04282 3.15757 6.88177 3.19758 6.80749 3.32172C6.73303 3.4457 6.77321 3.60658 6.89719 3.68103L9.18668 5.05447L9.93023 5.50053C10.0362 5.56416 10.1111 5.66502 10.141 5.78424C10.1708 5.90379 10.1523 6.02809 10.0886 6.13387C9.95761 6.35214 9.67341 6.42315 9.45547 6.29228L6.42243 4.47278C6.29813 4.39817 6.13757 4.43851 6.06312 4.56248C5.98867 4.68646 6.02901 4.84734 6.15283 4.92179L9.87529 7.15486C9.98123 7.21849 10.056 7.31918 10.0859 7.43873C10.1157 7.55812 10.0972 7.68226 10.0337 7.7882C9.97024 7.89397 9.86939 7.96875 9.74984 7.9986C9.62963 8.02845 9.50598 8.00991 9.40037 7.94661L8.71128 7.53319C8.71111 7.53319 8.71111 7.53302 8.71095 7.53302L8.71078 7.53302L5.67792 5.71352C5.55361 5.63874 5.39289 5.67908 5.31861 5.80322C5.24416 5.9272 5.2845 6.08808 5.40831 6.16253L8.44135 7.98203C8.54729 8.04566 8.62223 8.14652 8.65208 8.26574C8.68487 8.3966 8.65995 8.53042 8.58221 8.64259C8.44741 8.83758 8.15912 8.8894 7.94052 8.75805L3.30318 5.97606C3.20167 5.91538 3.07162 5.93014 2.98651 6.0123C2.90123 6.09463 2.88204 6.22402 2.93944 6.3275L3.90373 8.06484C4.00048 8.23851 3.99671 8.45301 3.89356 8.62488L3.89361 8.62495Z" fill="rgb(76,175,79)" fill-rule="nonzero" transform="matrix(1,0,0,-1,5.54633,27.1469)" />
		<path id="Vector" d="M5.37134 7.82744L7.67116 9.20711C8.03456 9.42536 8.48059 9.39696 8.7962 9.16405C8.87853 9.1033 8.95198 9.02863 9.01278 8.94079C9.03852 8.90367 9.06123 8.86508 9.08102 8.82533C9.14366 8.69944 9.17685 8.56187 9.18333 8.42239C9.3113 8.48919 9.44944 8.52843 9.59061 8.53541C9.60574 8.53616 9.62091 8.53653 9.63611 8.53653C9.71646 8.53653 9.79715 8.52653 9.87685 8.50669C9.92459 8.49476 9.97092 8.47949 10.0156 8.46106C10.2098 8.38092 10.3726 8.24115 10.4827 8.05769C10.5909 7.87714 10.6379 7.67179 10.6198 7.46645C10.6153 7.41478 10.6067 7.36311 10.5938 7.31183C10.57 7.21621 10.5322 7.12672 10.4825 7.04502C10.4095 6.92512 10.3106 6.82201 10.1919 6.74096C10.3125 6.66981 10.4188 6.57623 10.5007 6.45982C10.5136 6.44154 10.5258 6.4227 10.5374 6.4033C10.6045 6.29136 10.6481 6.16991 10.6672 6.04481C10.6773 5.97915 10.6806 5.91247 10.6771 5.84563C10.6737 5.78276 10.6643 5.71974 10.6488 5.65728C10.6201 5.54268 10.5721 5.43613 10.5074 5.34123C10.4282 5.22496 10.3239 5.12616 10.1994 5.05148L10.1981 5.05066C10.3181 4.97878 10.4236 4.88468 10.5048 4.76792C10.5164 4.75122 10.5275 4.73407 10.5381 4.71644C10.6182 4.58304 10.6647 4.43609 10.6763 4.28555C10.6771 4.27584 10.6777 4.26611 10.6781 4.25637C10.6826 4.16135 10.6731 4.06517 10.6494 3.97029C10.5855 3.71512 10.4259 3.49997 10.2003 3.36449L5.55999 0.580704C4.69394 0.061344 3.69275 -0.11792 2.74127 0.0764155C1.78127 0.272552 0.986212 0.824368 0.502788 1.63026C-0.136901 2.69638 -0.161553 3.92429 0.402332 4.9702C0.512828 5.17515 0.645924 5.37311 0.801419 5.5615C0.844879 5.61398 0.887679 5.66744 0.926546 5.72287C0.948276 5.75378 0.971926 5.78756 0.991825 5.81605C1.00962 5.84152 1.02442 5.86276 1.03216 5.87391C1.13038 6.04937 2.73309 8.93697 2.7331 8.93696C2.89496 9.22903 3.19835 9.39436 3.51124 9.39419C3.65719 9.39419 3.80528 9.35828 3.94189 9.28251C4.10685 9.19035 4.24542 9.05606 4.34234 8.89422L4.34236 8.89417C4.43654 8.73721 4.48778 8.56159 4.49582 8.38451C4.49891 8.31643 4.49562 8.24814 4.48593 8.18061C4.46749 8.05215 4.4259 7.92644 4.36106 7.8102L4.26347 7.63444L3.87081 6.92728L5.37134 7.82744ZM7.90527 8.7369L4.95415 6.9665L4.83403 6.89443L4.39947 6.63374L4.05677 6.42815L3.84519 6.30122L3.30318 5.97606C3.20167 5.91538 3.07162 5.93014 2.98651 6.0123C2.90123 6.09463 2.88204 6.22402 2.93944 6.3275L3.2021 6.80072L3.24613 6.88006L3.36601 7.09605L3.55995 7.44546L3.87416 8.01157L3.90373 8.06484C3.91694 8.08856 3.92828 8.11304 3.93775 8.13807C3.9976 8.2963 3.98262 8.47648 3.89356 8.62488L3.89361 8.62495C3.84277 8.70973 3.77291 8.7773 3.68747 8.82518C3.65065 8.84556 3.61184 8.85892 3.57259 8.86571C3.42357 8.89151 3.2682 8.82261 3.19124 8.68333C3.14763 8.60477 3.10512 8.52817 3.06367 8.4535C3.03934 8.40966 3.01537 8.36648 2.99176 8.32395C2.59603 7.61106 2.30179 7.0812 2.082 6.68678C2.04581 6.62183 2.01163 6.56054 1.97935 6.50272C1.71556 6.03016 1.57858 5.78875 1.50254 5.66244L1.50243 5.66226L1.50587 5.66144L1.50559 5.66049C1.49324 5.61944 1.4922 5.61796 1.35516 5.42217C1.30826 5.35543 1.25726 5.29131 1.20528 5.22817C1.10272 5.10391 1.01156 4.97562 0.931844 4.84409C0.377287 3.92906 0.377056 2.85754 0.951578 1.89962C1.35861 1.22102 2.03132 0.755775 2.84585 0.589484C3.66925 0.422047 4.5371 0.577841 5.29034 1.02979L9.87084 3.7776L9.93104 3.81371C10.037 3.87717 10.1118 3.97803 10.1416 4.09758C10.1715 4.21697 10.1529 4.34111 10.0893 4.44704C10.0793 4.46363 10.0685 4.47936 10.0569 4.49422C9.9156 4.67488 9.65765 4.72683 9.45612 4.60546L9.39545 4.56906L9.29591 4.50935L7.16679 3.23202C7.15188 3.22306 7.13643 3.21576 7.12066 3.21007C7.00533 3.16841 6.87284 3.21251 6.80749 3.32172C6.7412 3.43211 6.76578 3.57175 6.85948 3.65359C6.87101 3.66367 6.8836 3.67287 6.89719 3.68103L7.42449 3.99735L8.78668 4.81452L9.18668 5.05447L9.86926 5.46395L9.93023 5.50053C9.95988 5.51834 9.98711 5.53907 10.0116 5.5623C10.0746 5.62206 10.1195 5.69839 10.141 5.78424C10.1708 5.90379 10.1523 6.02809 10.0886 6.13387C10.0787 6.15047 10.0678 6.16622 10.0562 6.18109C9.91476 6.36178 9.65684 6.4132 9.45547 6.29228L9.39461 6.25578L9.29204 6.19424L6.94964 4.78905L6.42243 4.47278C6.40877 4.46458 6.39467 4.45777 6.38029 4.4523C6.26387 4.40804 6.12939 4.45213 6.06312 4.56248C5.99681 4.67291 6.02157 4.81262 6.11527 4.89445C6.12676 4.90449 6.1393 4.91365 6.15283 4.92179L6.68015 5.23813L8.77872 6.49704L8.95885 6.60509L9.08312 6.67964L9.08342 6.67983L9.1858 6.74124L9.27444 6.79441L9.27448 6.79444L9.81477 7.11855L9.87529 7.15486C9.91985 7.18162 9.9589 7.21495 9.99141 7.25347C10.0362 7.30653 10.0686 7.36947 10.0859 7.43873C10.1157 7.55812 10.0972 7.68226 10.0337 7.7882C9.97024 7.89397 9.86939 7.96875 9.74984 7.9986C9.68048 8.01582 9.60997 8.01694 9.54245 8.00264C9.49294 7.99216 9.44504 7.97339 9.40037 7.94661L9.34005 7.91042L8.71128 7.53319L8.71095 7.53302L8.71078 7.53302L8.30682 7.29067L6.20525 6.02988L5.67792 5.71352C5.6643 5.70533 5.65025 5.69852 5.63592 5.69305C5.51944 5.64858 5.38476 5.69268 5.31861 5.80322C5.25316 5.9122 5.27642 6.0497 5.36711 6.13194C5.37958 6.14326 5.39334 6.15352 5.40831 6.16253L5.93554 6.47881L8.27922 7.88477L8.34466 7.92403L8.44135 7.98203L8.44182 7.98231C8.54751 8.04596 8.62227 8.14669 8.65208 8.26574C8.66836 8.33072 8.67041 8.39642 8.65884 8.45984L8.65881 8.45999L8.65861 8.46111C8.65205 8.49648 8.64125 8.53112 8.62632 8.56453C8.61428 8.59144 8.59956 8.61756 8.58221 8.64259C8.44741 8.83758 8.15912 8.8894 7.94052 8.75805L7.90527 8.7369Z" fill="rgb(76,175,79)" fill-rule="evenodd" transform="matrix(1,0,0,-1,5.54633,27.1469)" />
		<path id="Vector" d="M10.1767 1.63012C9.69345 0.824102 8.8986 0.272416 7.93843 0.0762758C6.98678 -0.117728 5.98593 0.0611883 5.11971 0.580565L0.479011 3.36448C0.253194 3.49994 0.0934645 3.7151 0.029509 3.97062C-0.0339553 4.22563 0.0057295 4.49048 0.141021 4.71614C0.225477 4.85717 0.343878 4.96836 0.481143 5.05051L0.479831 5.05133C0.254014 5.18679 0.0942856 5.40195 0.0306659 5.65714C-0.0332896 5.91231 0.00639428 6.17734 0.14185 6.40328C0.229093 6.54841 0.348646 6.6619 0.485088 6.74242C0.286983 6.8787 0.144311 7.07663 0.0856034 7.31149C0.0216479 7.56682 0.061333 7.83169 0.196789 8.05734C0.332085 8.28316 0.547406 8.44272 0.80259 8.50651C0.882289 8.52651 0.963138 8.53635 1.04317 8.53635C1.20027 8.53619 1.35443 8.49634 1.49611 8.42221C1.5048 8.60572 1.55941 8.78595 1.66667 8.94061C1.9607 9.36483 2.54976 9.48226 3.00862 9.20693L6.80884 6.92743L6.31899 7.80973C6.13106 8.14657 6.13795 8.56213 6.3372 8.89438C6.43428 9.05607 6.57302 9.19038 6.73881 9.28336C6.87509 9.3588 7.02268 9.39455 7.16829 9.39455C7.48102 9.39439 7.78475 9.22941 7.94643 8.93732C8.50991 7.92203 9.57323 6.00727 9.648 5.8736C9.66391 5.85047 9.71196 5.7816 9.75312 5.72305C9.79232 5.66746 9.83463 5.61433 9.87841 5.56152C10.8273 4.41129 10.9417 2.90502 10.1767 1.63011L10.1767 1.63012ZM9.47438 5.22777C9.42223 5.29091 9.37107 5.35536 9.3245 5.42177C9.18281 5.62283 9.1792 5.62808 9.16854 5.68072C9.00291 5.95475 8.59884 6.6822 7.48812 8.68328C7.39071 8.85891 7.16932 8.92303 6.99303 8.82562C6.90628 8.77708 6.83658 8.70935 6.78574 8.62457C6.68276 8.45287 6.67882 8.23836 6.77607 8.06419L7.74002 6.32735C7.79758 6.2237 7.77839 6.09448 7.69328 6.01216C7.60833 5.92967 7.47845 5.91524 7.37645 5.97591L2.7391 8.7579C2.5205 8.88893 2.23238 8.8376 2.09724 8.64245C2.01951 8.53028 1.99475 8.39646 2.02721 8.26575C2.05706 8.14637 2.13201 8.04568 2.23811 7.98205C2.23844 7.98188 2.2386 7.98156 2.23893 7.98139L5.271 6.16239C5.39498 6.08794 5.43516 5.92723 5.3607 5.80308C5.28625 5.67927 5.1257 5.63876 5.00139 5.71338L1.27893 7.94645C1.17332 8.00975 1.04901 8.02845 0.929624 7.99844C0.809908 7.96859 0.709217 7.89381 0.645753 7.78771C0.582125 7.68193 0.563758 7.55779 0.593275 7.4384C0.623122 7.31902 0.698067 7.21816 0.804005 7.15453L1.52836 6.7201L4.5263 4.92142C4.65028 4.84697 4.69046 4.68626 4.61601 4.56212C4.54156 4.4383 4.381 4.39796 4.2567 4.47241L1.224 6.29192C1.00589 6.42311 0.721851 6.35194 0.590657 6.1335C0.527029 6.02756 0.508662 5.90342 0.538179 5.78403C0.568026 5.66464 0.642971 5.56395 0.749072 5.50016L1.49262 5.0541L3.78177 3.68066C3.90575 3.60621 3.94593 3.44549 3.87148 3.32135C3.79703 3.19754 3.63647 3.15687 3.51217 3.23165L1.22301 4.60509C1.1174 4.66839 0.993587 4.68709 0.873544 4.65708C0.754155 4.62723 0.653138 4.55245 0.589674 4.44668C0.52621 4.34074 0.507679 4.21643 0.537196 4.09721C0.567043 3.97782 0.641988 3.87713 0.74809 3.81334L5.38879 1.02942C6.14186 0.577613 7.01034 0.421188 7.83328 0.589116C8.64765 0.755403 9.32037 1.22065 9.72738 1.89925C10.3852 2.99507 10.2905 4.23942 9.47467 5.2278L9.47438 5.22777Z" fill="rgb(76,175,79)" fill-rule="nonzero" transform="matrix(1,0,0,-1,17.4001,27.1465)" />
		<path id="Vector" d="M10.1767 1.6301C9.73805 0.898491 9.04267 0.376426 8.19997 0.139597C8.11427 0.115514 8.02705 0.0943802 7.93843 0.0762758C6.98678 -0.117728 5.98593 0.0611883 5.11971 0.580565L0.479011 3.36448C0.253194 3.49994 0.0934645 3.7151 0.029509 3.97062C0.00355658 4.0749 -0.00514691 4.18082 0.00288283 4.28504C0.0144891 4.43568 0.0610544 4.58276 0.141021 4.71614C0.151595 4.73379 0.162701 4.75098 0.174309 4.7677C0.255419 4.88455 0.361064 4.97864 0.481143 5.05051L0.479831 5.05133C0.355423 5.12596 0.251074 5.22478 0.171804 5.34115C0.107188 5.43601 0.059236 5.54254 0.0306659 5.65714C0.0150174 5.71957 0.00557349 5.7826 0.00221899 5.84549C-0.00158159 5.91676 0.00243447 5.98786 0.0140996 6.05775C0.034218 6.1783 0.0770881 6.29526 0.14185 6.40328C0.153477 6.42262 0.165678 6.4414 0.178416 6.45962C0.261259 6.57808 0.36683 6.67263 0.485088 6.74242C0.367595 6.82324 0.269601 6.92575 0.197058 7.04479C0.147285 7.12647 0.109493 7.21592 0.0856034 7.31149C0.0730091 7.36177 0.0644338 7.41242 0.0598175 7.46307C0.0409917 7.66962 0.0880076 7.87612 0.196789 8.05734C0.307097 8.24145 0.4706 8.38152 0.665532 8.46155C0.709689 8.47968 0.75546 8.49473 0.80259 8.50651C0.882289 8.52651 0.963138 8.53635 1.04317 8.53635C1.05845 8.53634 1.07371 8.53594 1.08893 8.53518C1.23015 8.52811 1.36821 8.48913 1.49611 8.42221C1.50272 8.56167 1.53584 8.69923 1.59844 8.82512C1.61821 8.86488 1.64092 8.90348 1.66667 8.94061C1.72782 9.02883 1.80173 9.10379 1.88457 9.1647C2.20008 9.39669 2.64519 9.425 3.00862 9.20693L5.30822 7.82755L6.1143 7.34404L6.80884 6.92743L6.41652 7.63407L6.31899 7.80973C6.21988 7.98737 6.17495 8.18691 6.18385 8.38457C6.19183 8.56171 6.24303 8.73735 6.3372 8.89438C6.43428 9.05607 6.57302 9.19038 6.73881 9.28336C6.87509 9.3588 7.02268 9.39455 7.16829 9.39455C7.48102 9.39439 7.78475 9.22941 7.94643 8.93732C8.39329 8.13215 9.15451 6.7613 9.48775 6.16169C9.57471 6.00521 9.63253 5.90126 9.648 5.8736C9.66391 5.85047 9.71196 5.7816 9.75312 5.72305C9.79232 5.66746 9.83463 5.61433 9.87841 5.56152L9.87843 5.5615C10.5588 4.7368 10.8101 3.72907 10.6159 2.75481C10.5393 2.37026 10.3932 1.99093 10.1767 1.63013L10.1767 1.63011L10.1767 1.63012L10.1767 1.6301ZM9.72752 1.89948L9.72738 1.89925C9.46486 1.46157 9.09181 1.11263 8.64151 0.875428C8.39365 0.744865 8.12239 0.64815 7.83328 0.589116C7.01034 0.421188 6.14186 0.577613 5.38879 1.02942L3.1372 2.38014L0.808465 3.77712L0.74809 3.81334C0.641988 3.87713 0.567043 3.97782 0.537196 4.09721C0.507679 4.21643 0.52621 4.34074 0.589674 4.44668C0.599607 4.46323 0.610459 4.47903 0.622158 4.49401C0.685208 4.57476 0.772841 4.6319 0.873544 4.65708C0.993587 4.68709 1.1174 4.66839 1.22301 4.60509L1.28331 4.56892L1.38335 4.50889L2.98499 3.54795L3.51217 3.23165C3.52729 3.22255 3.54295 3.21516 3.55893 3.20942C3.67426 3.16799 3.80608 3.2126 3.87148 3.32135C3.93785 3.43202 3.91312 3.57176 3.81913 3.65354C3.80769 3.66349 3.79522 3.67258 3.78177 3.68066L3.25456 3.99697L1.89296 4.81391L1.49262 5.0541L0.809954 5.46364L0.749072 5.50016C0.719332 5.51804 0.69204 5.53882 0.667503 5.5621C0.6045 5.62187 0.55966 5.69811 0.538179 5.78403C0.508662 5.90342 0.527029 6.02756 0.590657 6.1335C0.60064 6.15012 0.611507 6.16589 0.623163 6.18078C0.764695 6.3616 1.02249 6.41313 1.224 6.29192L1.28424 6.25578L1.38457 6.19558L3.72952 4.7887L4.2567 4.47241C4.27016 4.46435 4.28405 4.45763 4.2982 4.45222C4.41477 4.40767 4.54962 4.45171 4.61601 4.56212C4.6826 4.67314 4.65749 4.81342 4.56276 4.89508C4.55157 4.90473 4.5394 4.91356 4.5263 4.92142L3.99904 5.23776L1.8978 6.49845L1.52836 6.7201L0.863464 7.11887L0.804005 7.15453C0.759422 7.18131 0.720329 7.21468 0.687776 7.25325C0.642975 7.30633 0.610562 7.36926 0.593275 7.4384C0.563758 7.55779 0.582125 7.68193 0.645753 7.78771C0.709217 7.89381 0.809908 7.96859 0.929624 7.99844C0.998598 8.01577 1.06922 8.01686 1.13692 8.00247C1.1864 7.99195 1.23433 7.97318 1.27893 7.94645L1.33836 7.9108L1.96945 7.53221L2.00398 7.5115L2.37166 7.29093L4.47421 6.02963L5.00139 5.71338C5.01453 5.7055 5.02807 5.6989 5.04186 5.69355C5.15866 5.64825 5.29412 5.69235 5.3607 5.80308C5.42627 5.91241 5.40294 6.05009 5.31176 6.13225C5.2994 6.14339 5.2858 6.15351 5.271 6.16239L4.74374 6.4787L2.3998 7.88488L2.33411 7.92429L2.23893 7.98139L2.23811 7.98205C2.13201 8.04568 2.05706 8.14637 2.02721 8.26575C2.002 8.36726 2.0113 8.47064 2.05312 8.5643C2.06515 8.59125 2.07987 8.61739 2.09724 8.64245C2.21419 8.81133 2.4457 8.8725 2.64758 8.801C2.66958 8.7932 2.69124 8.78383 2.71235 8.77285C2.72137 8.76816 2.73029 8.76318 2.7391 8.7579L2.77433 8.73677L2.79613 8.72369L2.79657 8.72343L5.72581 6.96615L5.84381 6.89535L6.27988 6.63375L6.62263 6.42813L6.83439 6.3011L7.37645 5.97591C7.47845 5.91524 7.60833 5.92967 7.69328 6.01216C7.76958 6.08595 7.7929 6.19743 7.75545 6.2944C7.75112 6.3056 7.74598 6.31661 7.74002 6.32735L7.4331 6.88035L7.31341 7.09601L7.11951 7.44537L6.80506 8.01195L6.77607 8.06419C6.76278 8.08798 6.75139 8.11252 6.74188 8.13761C6.68174 8.29616 6.69682 8.47632 6.78574 8.62457C6.83658 8.70935 6.90628 8.77708 6.99303 8.82562C7.16932 8.92303 7.39071 8.85891 7.48812 8.68328C7.53168 8.6048 7.57415 8.52829 7.61557 8.45368C8.04658 7.6772 8.36293 7.10753 8.59646 6.6889C8.91265 6.12208 9.07701 5.83216 9.16854 5.68072C9.1792 5.62808 9.18281 5.62283 9.3245 5.42177C9.37107 5.35536 9.42223 5.29091 9.47438 5.22777L9.47467 5.2278C10.1303 4.43348 10.3202 3.47385 10.0281 2.55885C10.0034 2.48172 9.97538 2.40492 9.9439 2.32855C9.88416 2.18365 9.81206 2.04034 9.72752 1.89948Z" fill="rgb(76,175,79)" fill-rule="evenodd" transform="matrix(1,0,0,-1,17.4001,27.1465)" />
	</g>
</svg>
