<svg viewBox="0 0 33.4113 33.4114" xmlns="http://www.w3.org/2000/svg" xmlns:xlink="http://www.w3.org/1999/xlink" width="33.411316" height="33.411377" fill="none">
	<rect id="Icon" width="33.411335" height="33.411335" x="0.000000" y="-0.000122" fill="rgb(255,255,255)" fill-opacity="0" />
	<path id="Vector" d="M27.8428 29.2349L27.8428 26.4506C27.8428 24.9737 27.2561 23.5574 26.2118 22.5131C25.1675 21.4687 23.7511 20.8821 22.2742 20.8821L20.8821 20.8821C20.5129 20.8821 20.1588 20.7354 19.8977 20.4743C19.6366 20.2132 19.4899 19.8591 19.4899 19.4899L19.4899 12.5292C19.4899 11.7908 19.1966 11.0826 18.6744 10.5604C18.1523 10.0383 17.4441 9.74495 16.7057 9.74495C15.9672 9.74495 15.259 10.0383 14.7369 10.5604C14.2147 11.0826 13.9214 11.7908 13.9214 12.5292L13.9214 25.0585L10.5802 20.6036C10.3209 20.2578 9.9846 19.9772 9.59799 19.7839C9.21138 19.5906 8.78507 19.4899 8.35282 19.4899L7.74863 19.4899C6.54443 19.4899 5.56854 20.4658 5.56854 21.67C5.56854 22.0654 5.67574 22.4538 5.87899 22.7921L9.74496 29.2349M16.7057 5.56853L16.7057 4.17639M25.0585 13.9214L26.4506 13.9214M6.96068 13.9214L8.35282 13.9214M10.2225 7.43817L9.23822 6.45393M23.1888 7.43817L24.1731 6.45393" fill="rgb(76,175,79)" fill-rule="nonzero" />
	<path id="Vector" d="M27.8428 29.2349L27.8428 26.4506C27.8428 24.9737 27.2561 23.5574 26.2118 22.5131C25.1675 21.4687 23.7511 20.8821 22.2742 20.8821L20.8821 20.8821C20.5129 20.8821 20.1588 20.7354 19.8977 20.4743C19.6366 20.2132 19.4899 19.8591 19.4899 19.4899L19.4899 12.5292C19.4899 11.7908 19.1966 11.0826 18.6744 10.5604C18.1523 10.0383 17.4441 9.74495 16.7057 9.74495C15.9672 9.74495 15.259 10.0383 14.7369 10.5604C14.2147 11.0826 13.9214 11.7908 13.9214 12.5292L13.9214 25.0585L10.5802 20.6036C10.3209 20.2578 9.9846 19.9772 9.59799 19.7839C9.21138 19.5906 8.78507 19.4899 8.35282 19.4899L7.74863 19.4899C6.54443 19.4899 5.56854 20.4658 5.56854 21.67C5.56854 22.0654 5.67574 22.4538 5.87899 22.7921L9.74496 29.2349M16.7057 5.56853L16.7057 4.17639M25.0585 13.9214L26.4506 13.9214M6.96068 13.9214L8.35282 13.9214M10.2225 7.43817L9.23822 6.45393M23.1888 7.43817L24.1731 6.45393" fill-rule="nonzero" stroke="rgb(76,175,79)" stroke-linecap="round" stroke-linejoin="round" stroke-width="1.392139" />
</svg>
