<svg viewBox="0 0 45.2446 38.98" xmlns="http://www.w3.org/2000/svg" xmlns:xlink="http://www.w3.org/1999/xlink" width="45.244568" height="38.979980" fill="none" customFrame="#000000">
	<defs>
		<clipPath id="clipPath_9">
			<rect width="33.411335" height="33.411335" x="-0.000061" y="0.000000" fill="rgb(255,255,255)" />
		</clipPath>
	</defs>
	<rect id="Icon" width="45.244522" height="38.979889" x="-0.000061" y="0.000000" />
	<path id="Rectangle 157" d="M31.3231 0C33.2453 0 34.8035 1.5582 34.8035 3.48035L34.8035 27.1467C34.8035 30.991 31.6871 34.1074 27.8428 34.1074L3.48035 34.1074C1.5582 34.1074 0 32.5492 0 30.6271L0 12.5293C0 5.60954 5.60954 0 12.5293 0L31.3231 0Z" fill="rgb(232,245,233)" fill-rule="evenodd" transform="matrix(-1,-8.74228e-08,8.74228e-08,-1,45.2445,38.9797)" />
	<g id="Icon" customFrame="url(#clipPath_9)">
		<rect id="Icon" width="33.411335" height="33.411335" x="-0.000061" y="0.000000" />
		<g id="Group 2">
			<path id="Vector" d="M7.75474 1.67111C7.58714 1.67111 7.43151 1.71719 7.29327 1.79132L7.29327 1.78935C7.29327 1.52565 7.19078 1.27801 7.00481 1.09253C6.81884 0.906561 6.57139 0.804066 6.30799 0.804066C6.13793 0.804066 5.98033 0.851296 5.8406 0.927388C5.8265 0.686155 5.73007 0.460673 5.55804 0.288463C5.37208 0.102495 5.12462 0 4.86106 0C4.33741 0 3.91218 0.411621 3.88153 0.927551C3.7195 0.839981 3.53632 0.794061 3.34739 0.806198C2.83227 0.839981 2.42887 1.28505 2.42887 1.81969L2.42887 6.25132L1.92424 5.37708C1.73204 5.0427 1.37226 4.83509 0.984893 4.83509C0.796137 4.83509 0.609678 4.88462 0.444542 4.97924C0.238897 5.09846 0.0917953 5.28984 0.0306233 5.5188C-0.0308721 5.74789 0.000940666 5.98748 0.119835 6.19282C0.119999 6.19282 1.77091 9.05171 1.87162 9.22733C1.88359 9.25373 1.91771 9.33031 1.94673 9.39558C1.97445 9.4579 1.99823 9.52185 2.02102 9.58614C2.51888 10.9917 3.75165 11.8648 5.2384 11.8648C7.16907 11.8648 8.73979 10.1616 8.73979 8.06803L8.73995 2.65654C8.73995 2.39317 8.63762 2.1457 8.45182 1.95955C8.26585 1.77358 8.01839 1.67109 7.7547 1.67109L7.75474 1.67111ZM5.23842 11.3413C3.9609 11.3413 2.94267 10.6197 2.51449 9.41105C2.48711 9.3343 2.45857 9.25756 2.42528 9.18277C2.32869 8.96614 2.32869 8.96614 2.30147 8.93498L2.29786 8.9381C2.16306 8.68375 1.76259 7.99023 0.573152 5.9308C0.524281 5.84634 0.511325 5.74827 0.536253 5.65447C0.561508 5.56067 0.622023 5.48162 0.705823 5.43325C0.965915 5.28385 1.32212 5.38028 1.47036 5.63856L2.46399 7.35886C2.52336 7.46136 2.6434 7.5117 2.75852 7.48054C2.87299 7.44988 2.95252 7.34607 2.95252 7.22767L2.95252 1.81954C2.95252 1.56436 3.14505 1.34413 3.38171 1.32856C3.51815 1.32134 3.6454 1.36709 3.74101 1.46254C3.82793 1.54945 3.87581 1.66523 3.87581 1.78904L3.87581 5.32604C3.87581 5.47068 3.99307 5.58793 4.13771 5.58793C4.28235 5.58793 4.39961 5.47084 4.39961 5.32604L4.39944 0.985088C4.39944 0.730572 4.60657 0.523453 4.86108 0.523453C4.98473 0.523453 5.10084 0.571338 5.18792 0.658254C5.27483 0.745333 5.32272 0.861438 5.32272 0.985092L5.32272 5.32604C5.32272 5.47068 5.43981 5.58794 5.58461 5.58794C5.72926 5.58794 5.84651 5.47084 5.84651 5.32604L5.84635 1.82973L5.84635 1.78906C5.84635 1.53471 6.05347 1.32759 6.30815 1.32759C6.43164 1.32759 6.54741 1.37564 6.63499 1.46289C6.7219 1.54964 6.76979 1.66542 6.76979 1.78923L6.76979 5.32622C6.76979 5.47086 6.88688 5.58812 7.03169 5.58812C7.17633 5.58812 7.29358 5.47103 7.29358 5.32622L7.29326 2.65641C7.29326 2.40173 7.50038 2.19461 7.75472 2.19461C7.87854 2.19461 7.99431 2.24266 8.08123 2.32941C8.16847 2.41665 8.21619 2.53276 8.21619 2.65641L8.21636 8.0679C8.21636 9.87263 6.88049 11.3412 5.2384 11.3412L5.23842 11.3413Z" fill="rgb(15.9198,61.625,18.6485)" fill-rule="nonzero" transform="matrix(1,0,0,-1,11.9521,18.1294)" />
			<path id="Vector" d="M3.87081 6.92728L7.67116 9.20711C8.12935 9.48229 8.7189 9.36536 9.01278 8.94079C9.12003 8.78614 9.1748 8.60591 9.18333 8.42239C9.32502 8.49635 9.47917 8.53653 9.63611 8.53653C9.71646 8.53653 9.79715 8.52653 9.87685 8.50669C10.1322 8.44289 10.3473 8.28333 10.4827 8.05769C10.6181 7.83171 10.6576 7.56687 10.5938 7.31183C10.535 7.07585 10.3915 6.87724 10.1919 6.74096C10.3314 6.65864 10.4518 6.5463 10.5374 6.4033C10.6729 6.17732 10.7124 5.91261 10.6488 5.65728C10.585 5.40227 10.4254 5.18712 10.1994 5.05148L10.1981 5.05066C10.3352 4.9685 10.4535 4.85731 10.5381 4.71644C10.6737 4.49046 10.7132 4.22563 10.6494 3.97029C10.5855 3.71512 10.4259 3.49997 10.2003 3.36449L5.55999 0.580704C4.69394 0.061344 3.69275 -0.11792 2.74127 0.0764155C1.78127 0.272552 0.986212 0.824368 0.502788 1.63026C-0.262251 2.90529 -0.147599 4.41174 0.801419 5.5615C0.844879 5.61398 0.887679 5.66744 0.926546 5.72287C0.967709 5.78141 1.01576 5.85029 1.03216 5.87391C1.13039 6.04938 2.73327 8.9373 2.7331 8.93696C2.89496 9.22903 3.19835 9.39436 3.51124 9.39419C3.65719 9.39419 3.80528 9.35828 3.94189 9.28251C4.10687 9.19035 4.24544 9.05604 4.34236 8.89417C4.54161 8.56209 4.54867 8.14652 4.36106 7.8102L3.87081 6.92728ZM3.89361 8.62495C3.84277 8.70973 3.77291 8.7773 3.68747 8.82518C3.51085 8.92292 3.28848 8.85929 3.19124 8.68333C2.04429 6.61701 1.65331 5.91285 1.50243 5.66226L1.50587 5.66144C1.49324 5.61945 1.49324 5.61945 1.35516 5.42217C1.30826 5.35543 1.25726 5.29131 1.20528 5.22817C0.389228 4.23945 0.294475 2.99523 0.951578 1.89962C1.35861 1.22102 2.03132 0.755775 2.84585 0.589484C3.66925 0.422047 4.5371 0.577841 5.29034 1.02979L9.93104 3.81371C10.037 3.87717 10.1118 3.97803 10.1416 4.09758C10.1715 4.21697 10.1529 4.34111 10.0893 4.44704C9.95843 4.66515 9.67423 4.73682 9.45612 4.60546L7.16679 3.23202C7.04282 3.15757 6.88177 3.19758 6.80749 3.32172C6.73303 3.4457 6.77321 3.60658 6.89719 3.68103L9.18668 5.05447L9.93023 5.50053C10.0362 5.56416 10.1111 5.66502 10.141 5.78424C10.1708 5.90379 10.1523 6.02809 10.0886 6.13387C9.95761 6.35214 9.67341 6.42315 9.45547 6.29228L6.42243 4.47278C6.29813 4.39817 6.13757 4.43851 6.06312 4.56248C5.98867 4.68646 6.02901 4.84734 6.15283 4.92179L9.87529 7.15486C9.98123 7.21849 10.056 7.31918 10.0859 7.43873C10.1157 7.55812 10.0972 7.68226 10.0337 7.7882C9.97024 7.89397 9.86939 7.96875 9.74984 7.9986C9.62963 8.02845 9.50598 8.00991 9.40037 7.94661L8.71128 7.53319C8.71111 7.53319 8.71111 7.53302 8.71095 7.53302L8.71078 7.53302L5.67792 5.71352C5.55361 5.63874 5.39289 5.67908 5.31861 5.80322C5.24416 5.9272 5.2845 6.08808 5.40831 6.16253L8.44135 7.98203C8.54729 8.04566 8.62223 8.14652 8.65208 8.26574C8.68487 8.3966 8.65995 8.53042 8.58221 8.64259C8.44741 8.83758 8.15912 8.8894 7.94052 8.75805L3.30318 5.97606C3.20167 5.91538 3.07162 5.93014 2.98651 6.0123C2.90123 6.09463 2.88204 6.22402 2.93944 6.3275L3.90373 8.06484C4.00048 8.23851 3.99671 8.45301 3.89356 8.62488L3.89361 8.62495Z" fill="rgb(15.9198,61.625,18.6485)" fill-rule="nonzero" transform="matrix(1,0,0,-1,5.54639,27.1467)" />
			<path id="Vector" d="M10.1767 1.63012C9.69345 0.824102 8.8986 0.272416 7.93843 0.0762758C6.98678 -0.117728 5.98593 0.0611883 5.11971 0.580565L0.479011 3.36448C0.253194 3.49994 0.0934645 3.7151 0.029509 3.97062C-0.0339553 4.22563 0.0057295 4.49048 0.141021 4.71614C0.225477 4.85717 0.343878 4.96836 0.481143 5.05051L0.479831 5.05133C0.254014 5.18679 0.0942856 5.40195 0.0306659 5.65714C-0.0332896 5.91231 0.00639428 6.17734 0.14185 6.40328C0.229093 6.54841 0.348646 6.6619 0.485088 6.74242C0.286983 6.8787 0.144311 7.07663 0.0856034 7.31149C0.0216479 7.56682 0.061333 7.83169 0.196789 8.05734C0.332085 8.28316 0.547406 8.44272 0.80259 8.50651C0.882289 8.52651 0.963138 8.53635 1.04317 8.53635C1.20027 8.53619 1.35443 8.49634 1.49611 8.42221C1.5048 8.60572 1.55941 8.78595 1.66667 8.94061C1.9607 9.36483 2.54976 9.48226 3.00862 9.20693L6.80884 6.92743L6.31899 7.80973C6.13106 8.14657 6.13795 8.56213 6.3372 8.89438C6.43428 9.05607 6.57302 9.19038 6.73881 9.28336C6.87509 9.3588 7.02268 9.39455 7.16829 9.39455C7.48102 9.39439 7.78475 9.22941 7.94643 8.93732C8.50991 7.92203 9.57323 6.00727 9.648 5.8736C9.66391 5.85047 9.71196 5.7816 9.75312 5.72305C9.79232 5.66746 9.83463 5.61433 9.87841 5.56152C10.8273 4.41129 10.9417 2.90502 10.1767 1.63011L10.1767 1.63012ZM9.47438 5.22777C9.42223 5.29091 9.37107 5.35536 9.3245 5.42177C9.18281 5.62283 9.1792 5.62808 9.16854 5.68072C9.00291 5.95475 8.59884 6.6822 7.48812 8.68328C7.39071 8.85891 7.16932 8.92303 6.99303 8.82562C6.90628 8.77708 6.83658 8.70935 6.78574 8.62457C6.68276 8.45287 6.67882 8.23836 6.77607 8.06419L7.74002 6.32735C7.79758 6.2237 7.77839 6.09448 7.69328 6.01216C7.60833 5.92967 7.47845 5.91524 7.37645 5.97591L2.7391 8.7579C2.5205 8.88893 2.23238 8.8376 2.09724 8.64245C2.01951 8.53028 1.99475 8.39646 2.02721 8.26575C2.05706 8.14637 2.13201 8.04568 2.23811 7.98205C2.23844 7.98188 2.2386 7.98156 2.23893 7.98139L5.271 6.16239C5.39498 6.08794 5.43516 5.92723 5.3607 5.80308C5.28625 5.67927 5.1257 5.63876 5.00139 5.71338L1.27893 7.94645C1.17332 8.00975 1.04901 8.02845 0.929624 7.99844C0.809908 7.96859 0.709217 7.89381 0.645753 7.78771C0.582125 7.68193 0.563758 7.55779 0.593275 7.4384C0.623122 7.31902 0.698067 7.21816 0.804005 7.15453L1.52836 6.7201L4.5263 4.92142C4.65028 4.84697 4.69046 4.68626 4.61601 4.56212C4.54156 4.4383 4.381 4.39796 4.2567 4.47241L1.224 6.29192C1.00589 6.42311 0.721851 6.35194 0.590657 6.1335C0.527029 6.02756 0.508662 5.90342 0.538179 5.78403C0.568026 5.66464 0.642971 5.56395 0.749072 5.50016L1.49262 5.0541L3.78177 3.68066C3.90575 3.60621 3.94593 3.44549 3.87148 3.32135C3.79703 3.19754 3.63647 3.15687 3.51217 3.23165L1.22301 4.60509C1.1174 4.66839 0.993587 4.68709 0.873544 4.65708C0.754155 4.62723 0.653138 4.55245 0.589674 4.44668C0.52621 4.34074 0.507679 4.21643 0.537196 4.09721C0.567043 3.97782 0.641988 3.87713 0.74809 3.81334L5.38879 1.02942C6.14186 0.577613 7.01034 0.421188 7.83328 0.589116C8.64765 0.755403 9.32037 1.22065 9.72738 1.89925C10.3852 2.99507 10.2905 4.23942 9.47467 5.2278L9.47438 5.22777Z" fill="rgb(15.9198,61.625,18.6485)" fill-rule="nonzero" transform="matrix(1,0,0,-1,17.4002,27.1465)" />
		</g>
	</g>
</svg>
