<svg viewBox="0 0 11.8796 11.8631" xmlns="http://www.w3.org/2000/svg" xmlns:xlink="http://www.w3.org/1999/xlink" width="11.879593" height="11.863098" fill="none" customFrame="#000000">
	<path id="Path" d="M11.8796 5.9315C11.8796 6.33319 11.8387 6.73433 11.7584 7.12535C11.68 7.50708 11.564 7.88185 11.4121 8.24011C11.2636 8.59203 11.0794 8.93116 10.8642 9.24742C10.6522 9.56169 10.4079 9.85652 10.1396 10.1253C9.87076 10.3929 9.57492 10.6364 9.2608 10.8494C8.9435 11.0631 8.60388 11.247 8.25175 11.3962C7.89297 11.5473 7.51734 11.6632 7.13594 11.7414C6.7444 11.8219 6.3418 11.863 5.93953 11.863C5.53695 11.863 5.13437 11.8219 4.74339 11.7414C4.36141 11.6632 3.9858 11.5473 3.6273 11.3962C3.2752 11.247 2.93525 11.0631 2.61795 10.8494C2.30383 10.6365 2.00799 10.3929 1.7397 10.1253C1.47112 9.85652 1.22689 9.56169 1.01458 9.24742C0.800531 8.93116 0.616051 8.59201 0.466978 8.24011C0.314977 7.88185 0.198686 7.50706 0.120081 7.12535C0.0406159 6.73433 0 6.33319 0 5.9315C0 5.5295 0.0405927 5.1275 0.120104 4.73734C0.198709 4.35561 0.315 3.98027 0.467002 3.62259C0.616074 3.27041 0.800554 2.93098 1.01461 2.61469C1.22692 2.30017 1.47115 2.00589 1.73972 1.73682C2.00801 1.4692 2.30385 1.22622 2.61797 1.01364C2.93527 0.799013 3.27522 0.615124 3.62732 0.465663C3.98582 0.314159 4.36141 0.198036 4.74341 0.120427C5.13439 0.0404963 5.53697 -6.10352e-05 5.93955 -6.10352e-05C6.34183 -6.10352e-05 6.74441 0.0404963 7.13596 0.120427C7.51736 0.198059 7.89297 0.314183 8.25177 0.465663C8.60388 0.615101 8.94352 0.799013 9.26082 1.01364C9.57494 1.22622 9.87081 1.4692 10.1397 1.73682C10.408 2.00589 10.6522 2.30017 10.8642 2.61469C11.0794 2.93098 11.2636 3.27043 11.4121 3.62259C11.564 3.98027 11.68 4.35561 11.7584 4.73734C11.8387 5.1275 11.8796 5.5295 11.8796 5.9315ZM3.77519 1.34988C2.36063 2.01691 1.30487 3.31848 0.97567 4.8871C1.1094 4.88826 3.22324 4.91491 5.65873 4.26873C4.78078 2.71112 3.84278 1.43998 3.77519 1.34988ZM6.079 5.04873C3.46716 5.82953 0.960881 5.77335 0.870978 5.76989C0.869513 5.82433 0.866909 5.87703 0.866909 5.93149C0.866909 7.23276 1.35853 8.41907 2.16659 9.31606C2.16485 9.31344 3.55302 6.85423 6.29045 5.97031C6.35657 5.9483 6.42387 5.92859 6.49057 5.90948C6.36326 5.62161 6.2243 5.33314 6.079 5.04873ZM9.28952 2.12986C8.39646 1.3435 7.22383 0.866519 5.93951 0.866519C5.52735 0.866519 5.12738 0.91634 4.74423 1.00844C4.82021 1.1104 5.77302 2.37257 6.64053 3.96318C8.55455 3.24666 9.27703 2.14838 9.28952 2.12986ZM6.83635 6.74882C6.82505 6.75255 6.81375 6.75578 6.80271 6.75982C3.80979 7.80169 2.83241 9.90135 2.82184 9.92427C3.683 10.593 4.76312 10.9965 5.93954 10.9965C6.64201 10.9965 7.31114 10.8536 7.91993 10.5951C7.84482 10.1525 7.55014 8.60127 6.83635 6.74882ZM8.77411 10.1322C9.9131 9.36473 10.722 8.14599 10.9477 6.73431C10.8433 6.70071 9.42408 6.25208 7.78677 6.5142C8.45214 8.34002 8.72247 9.82697 8.77411 10.1322ZM7.03098 4.71795C7.14871 4.95951 7.26272 5.20536 7.36799 5.45244C7.40542 5.54108 7.44197 5.62797 7.47763 5.71484C9.22021 5.49588 10.937 5.86428 11.0104 5.87933C10.9988 4.67856 10.5686 3.57652 9.85688 2.71374C9.84731 2.72732 9.03373 3.90119 7.03098 4.71795Z" fill="rgb(255,255,255)" fill-rule="evenodd" />
</svg>
