<svg viewBox="0 0 107.536 16.7058" xmlns="http://www.w3.org/2000/svg" xmlns:xlink="http://www.w3.org/1999/xlink" width="107.536072" height="16.705811" fill="none" customFrame="#000000">
	<defs>
		<clipPath id="clipPath_0">
			<rect width="24.362432" height="16.705667" x="0.000000" y="0.000000" fill="rgb(255,255,255)" />
		</clipPath>
	</defs>
	<rect id="Logo" width="107.536057" height="16.705667" x="0.000000" y="0.000000" />
	<g id="Icon" customFrame="url(#clipPath_0)">
		<rect id="Icon" width="24.362432" height="16.705667" x="0.000000" y="0.000000" fill="rgb(255,255,255)" fill-opacity="0" />
		<path id="Vector" d="M13.0766 9.14203L9.32411 15.5688L5.57168 9.14203L13.0766 9.14203ZM14.0818 8.56763L4.56235 8.56763L9.32411 16.7055L14.0818 8.56763Z" fill="rgb(38,50,56)" fill-rule="nonzero" />
		<path id="Vector" d="M19.6007 1.14878L23.3531 7.57551L15.8482 7.57551L19.6007 1.14878ZM19.6007 0L14.8389 8.13785L24.3625 8.13785L19.6007 0Z" fill="rgb(38,50,56)" fill-rule="nonzero" />
		<path id="Vector" d="M0 0L3.99259 7.19795L8.35551 0.180742L0 0Z" fill="rgb(76,175,79)" fill-rule="nonzero" />
		<path id="Vector" d="M9.32425 0.630615L13.5122 7.7884L5.12817 7.7884L9.32425 0.630615Z" fill="rgb(76,175,79)" fill-rule="nonzero" />
		<path id="Vector" d="M14.5906 9.35107L18.7827 16.7057L10.1992 16.7057L14.4604 9.35107L14.5906 9.35107Z" fill="rgb(76,175,79)" fill-rule="nonzero" />
		<path id="Vector" d="M15.4982 8.90503L19.6007 16.1472L23.7601 8.90503L15.4982 8.90503Z" fill="rgb(76,175,79)" fill-rule="nonzero" />
	</g>
	<path id="Nexcent" d="M41.7869 1.16187L41.7869 15.3364L39.1984 15.3364L33.0317 6.41501L32.9279 6.41501L32.9279 15.3364L29.931 15.3364L29.931 1.16187L32.561 1.16187L38.6793 10.0763L38.8039 10.0763L38.8039 1.16187L41.7869 1.16187ZM102.394 2.15851L105.342 2.15851L105.342 4.70549L107.342 4.70549L107.342 6.92026L105.342 6.92026L105.342 12.0696C105.342 12.3418 105.384 12.5541 105.467 12.7063C105.55 12.854 105.665 12.9578 105.813 13.0178C105.965 13.0778 106.14 13.1078 106.339 13.1078C106.477 13.1078 106.616 13.0962 106.754 13.0732C106.892 13.0455 106.999 13.0247 107.072 13.0109L107.536 15.2049C107.388 15.251 107.181 15.3041 106.913 15.3641C106.646 15.4287 106.32 15.4679 105.937 15.4817C105.227 15.5094 104.604 15.4148 104.069 15.1979C103.538 14.9811 103.125 14.6443 102.83 14.1875Q102.394 13.5128 102.394 12.4893C102.394 12.4786 102.394 12.4679 102.394 12.4572L102.394 6.92026L100.94 6.92026L100.94 4.70549L102.394 4.70549L102.394 2.15851ZM49.0524 15.544C47.9589 15.544 47.0176 15.3225 46.2286 14.8796C45.4442 14.432 44.8397 13.7999 44.4152 12.9832Q43.7785 11.7512 43.7785 10.0694Q43.7785 8.42907 44.4152 7.19018Q44.8038 6.43419 45.3856 5.88178Q45.7573 5.52895 46.2078 5.25918C46.983 4.79777 47.892 4.56707 48.9347 4.56707C49.6361 4.56707 50.289 4.68011 50.8934 4.90621C51.5025 5.12768 52.0331 5.4622 52.4853 5.90977C52.9421 6.35734 53.2974 6.92026 53.5511 7.59853Q53.9318 8.60902 53.9318 9.96556L53.9318 10.7753L46.6923 10.7753L46.6923 10.7823C46.6923 11.3083 46.7892 11.7628 46.983 12.1457C47.1814 12.5287 47.4605 12.824 47.8204 13.0316C48.1803 13.2393 48.6071 13.3431 49.1008 13.3431C49.4284 13.3431 49.7284 13.2969 50.0006 13.2047C50.2728 13.1124 50.5058 12.974 50.6996 12.7894C50.8934 12.6048 51.0411 12.3787 51.1426 12.1111L53.8695 12.2911C53.7311 12.9463 53.4473 13.5184 53.0182 14.0075C52.5937 14.492 52.0446 14.8703 51.371 15.1426C50.7019 15.4102 49.9291 15.544 49.0524 15.544ZM71.2796 15.544C70.1907 15.544 69.2541 15.3133 68.4697 14.8519C67.6899 14.3859 67.0901 13.7399 66.6702 12.914C66.2549 12.088 66.0473 11.1375 66.0473 10.0625Q66.0473 8.42907 66.6771 7.1971Q67.0463 6.47874 67.5947 5.94419Q67.9921 5.55688 68.4835 5.2661C69.2633 4.80008 70.1907 4.56707 71.2658 4.56707Q72.657 4.56707 73.7021 5.07231Q74.4324 5.42537 74.9497 5.97784Q75.1728 6.21597 75.3562 6.49115C75.7622 7.10021 75.986 7.81539 76.0276 8.6367L73.2453 8.6367C73.1668 8.10608 72.9592 7.67928 72.6224 7.35629C72.2901 7.02869 71.8541 6.86489 71.3143 6.86489C70.8575 6.86489 70.4583 6.98947 70.1169 7.23863C69.7801 7.48318 69.5171 7.84077 69.3279 8.31141Q69.0441 9.01737 69.0441 10.0209C69.0441 10.6992 69.1364 11.276 69.321 11.7512C69.5101 12.2265 69.7755 12.5887 70.1169 12.8378C70.4583 13.087 70.8575 13.2116 71.3143 13.2116C71.6511 13.2116 71.9533 13.1424 72.2209 13.0039C72.4932 12.8655 72.7169 12.6648 72.8923 12.4018C73.0722 12.1342 73.1899 11.8135 73.2453 11.4398L76.0276 11.4398C75.9814 12.2518 75.7599 12.967 75.3631 13.5853C74.9709 14.199 74.4288 14.6789 73.7367 15.0249C73.0445 15.371 72.2255 15.544 71.2796 15.544ZM82.7601 15.544C81.6666 15.544 80.7253 15.3225 79.9363 14.8796C79.1519 14.432 78.5474 13.7999 78.1229 12.9832C77.6984 12.1619 77.4862 11.1906 77.4862 10.0694C77.4862 8.97584 77.6984 8.01611 78.1229 7.19018C78.5474 6.36426 79.145 5.72059 79.9155 5.25918Q79.9299 5.25063 79.9443 5.24219Q79.9522 5.23754 79.9602 5.23292Q81.1082 4.56707 82.6424 4.56707C83.3438 4.56707 83.9967 4.68011 84.6011 4.90621C85.2102 5.12768 85.7408 5.4622 86.193 5.90977Q86.8782 6.58112 87.2589 7.59853Q87.6395 8.60902 87.6395 9.96556L87.6395 10.7753L80.4 10.7753L80.4 10.7823C80.4 11.3083 80.4969 11.7628 80.6907 12.1457C80.8891 12.5287 81.1682 12.824 81.5281 13.0316C81.888 13.2393 82.3148 13.3431 82.8085 13.3431C83.1362 13.3431 83.4361 13.2969 83.7083 13.2047C83.9805 13.1124 84.2135 12.974 84.4073 12.7894C84.6011 12.6048 84.7488 12.3787 84.8503 12.1111L87.5772 12.2911C87.4388 12.9463 87.155 13.5184 86.7259 14.0075C86.3014 14.492 85.7523 14.8703 85.0787 15.1426C84.4096 15.4102 83.6368 15.544 82.7601 15.544ZM92.512 9.19039L92.512 15.3364L89.5636 15.3364L89.5636 4.70549L92.3736 4.70549L92.3736 6.58112L92.4982 6.58112C92.7335 5.96283 93.128 5.47374 93.6817 5.11384C94.2354 4.74933 94.9067 4.56707 95.6957 4.56707C96.434 4.56707 97.0776 4.72856 97.6267 5.05155C98.1758 5.37454 98.6026 5.83595 98.9071 6.43578C99.2117 7.031 99.3639 7.74157 99.3639 8.56749L99.3639 15.3364L96.4155 15.3364L96.4155 9.0935L96.4156 9.06721Q96.4156 8.16268 95.9703 7.63123Q95.9445 7.60041 95.9172 7.57085C95.5804 7.20172 95.1167 7.01716 94.526 7.01716C94.1292 7.01716 93.7786 7.10252 93.474 7.27324C93.1741 7.44396 92.9388 7.69312 92.7681 8.02072C92.602 8.34371 92.5166 8.7336 92.512 9.19039ZM58.1295 4.70549L60.0812 8.42215L62.0815 4.70549L65.106 4.70549L62.0261 10.0209L65.189 15.3364L62.1783 15.3364L60.0812 11.6612L58.0187 15.3364L54.9734 15.3364L58.1295 10.0209L55.0842 4.70549L58.1295 4.70549ZM46.6951 8.94815L51.1564 8.94815C51.1564 8.52366 51.0641 8.14761 50.8796 7.82001C50.695 7.49241 50.4389 7.23632 50.1113 7.05176Q50.0958 7.04264 50.08 7.03382Q49.6062 6.76799 48.9832 6.76799C48.5356 6.76799 48.1388 6.87181 47.7927 7.07944Q47.5337 7.23347 47.3313 7.44239L47.3313 7.44242Q47.1335 7.64654 46.9899 7.90306Q46.9214 8.0237 46.8687 8.15086L46.8687 8.15093Q46.7149 8.52178 46.6951 8.94815ZM80.4028 8.94815L84.8641 8.94815C84.8641 8.52366 84.7718 8.14761 84.5873 7.82001C84.4027 7.49241 84.1466 7.23632 83.819 7.05176C83.496 6.86258 83.12 6.76799 82.6909 6.76799Q82.1199 6.76799 81.659 6.99331L81.6586 6.99349Q81.5779 7.033 81.5005 7.07944C81.159 7.28246 80.8914 7.557 80.6976 7.90306Q80.6291 8.02368 80.5764 8.15082Q80.4226 8.52172 80.4028 8.94815Z" fill="rgb(38,50,56)" fill-rule="evenodd" />
</svg>
