<svg viewBox="0 0 32.5629 21.6599" xmlns="http://www.w3.org/2000/svg" xmlns:xlink="http://www.w3.org/1999/xlink" width="32.562866" height="21.659912" fill="none" customFrame="#000000">
	<path id="Vector" d="M16.3376 14.7448C17.6486 13.6419 18.5888 12.1625 19.0307 10.5072C19.4726 8.85191 19.3947 7.10077 18.8078 5.49119C18.2208 3.88161 17.153 2.49146 15.7493 1.50921C14.3456 0.52696 12.6737 0.00012207 10.9605 0.00012207C9.24718 0.00012207 7.57535 0.52696 6.17161 1.50921C4.76787 2.49146 3.70013 3.88161 3.11315 5.49119C2.52617 7.10077 2.44833 8.85191 2.8902 10.5072C3.33206 12.1625 4.27226 13.6419 5.58331 14.7448C3.45705 15.7071 1.62736 17.2213 0.284483 19.1301C0.0461464 19.4695 -0.0478543 19.8895 0.0230995 20.2981C0.0940533 20.7067 0.324169 21.0705 0.662971 21.3096C0.925633 21.4974 1.24066 21.5978 1.56351 21.5968C1.81463 21.5975 2.06218 21.5373 2.28495 21.4214C2.50771 21.3055 2.69904 21.1372 2.84254 20.9312C3.75759 19.6279 4.97298 18.564 6.38597 17.8296C7.79896 17.0952 9.368 16.7118 10.9605 16.7118C12.5529 16.7118 14.1219 17.0952 15.5349 17.8296C16.9479 18.564 18.1633 19.6279 19.0784 20.9312C19.1918 21.1105 19.3405 21.2648 19.5154 21.3849C19.6903 21.505 19.8878 21.5883 20.0959 21.6297C20.304 21.6712 20.5183 21.6699 20.7259 21.626C20.9335 21.5821 21.13 21.4965 21.3035 21.3743C21.477 21.2522 21.6238 21.0961 21.7351 20.9154C21.8465 20.7348 21.9199 20.5335 21.951 20.3236C21.9822 20.1137 21.9703 19.8997 21.9163 19.6945C21.8622 19.4894 21.767 19.2973 21.6364 19.1301C20.2935 17.2213 18.4639 15.7071 16.3376 14.7448ZM5.73993 8.36276C5.73993 7.33024 6.04611 6.3209 6.61975 5.46239C7.19338 4.60388 8.00872 3.93475 8.96264 3.53962C9.91657 3.14449 10.9662 3.04111 11.9789 3.24255C12.9916 3.44398 13.9218 3.94119 14.6519 4.67129C15.382 5.40139 15.8792 6.3316 16.0807 7.34428C16.2821 8.35697 16.1787 9.40664 15.7836 10.3606C15.3885 11.3145 14.7193 12.1298 13.8608 12.7035C13.0023 13.2771 11.993 13.5833 10.9605 13.5833C9.57588 13.5833 8.24802 13.0333 7.26898 12.0542C6.28995 11.0752 5.73993 9.74732 5.73993 8.36276ZM31.8947 21.3096C31.6321 21.4974 31.3171 21.5978 30.9942 21.5968C30.7435 21.5953 30.4967 21.5342 30.2743 21.4185C30.0519 21.3027 29.8602 21.1357 29.7152 20.9312C28.7982 19.6301 27.5823 18.5682 26.1696 17.8347C24.757 17.1011 23.189 16.7173 21.5973 16.7156C21.1819 16.7156 20.7835 16.5506 20.4898 16.2569C20.1961 15.9632 20.0311 15.5648 20.0311 15.1494C20.0311 14.7341 20.1961 14.3357 20.4898 14.042C20.7835 13.7483 21.1819 13.5833 21.5973 13.5833C22.9818 13.5833 24.3097 13.0333 25.2887 12.0542C26.2678 11.0752 26.8178 9.74732 26.8178 8.36276C26.8178 6.97819 26.2678 5.65033 25.2887 4.67129C24.3097 3.69225 22.9818 3.14224 21.5973 3.14224C21.1206 3.14134 20.6461 3.20724 20.1877 3.33801C19.9887 3.39738 19.7798 3.41657 19.5732 3.39444C19.3667 3.37232 19.1666 3.30932 18.9847 3.20913C18.8027 3.10894 18.6425 2.97355 18.5133 2.81085C18.3842 2.64814 18.2887 2.46137 18.2324 2.26141C18.1762 2.06145 18.1602 1.8523 18.1856 1.64612C18.2109 1.43995 18.277 1.24088 18.3801 1.0605C18.4831 0.880115 18.6209 0.722028 18.7856 0.595441C18.9503 0.468854 19.1386 0.376296 19.3394 0.323155C20.0737 0.114084 20.8337 0.00865441 21.5973 0.00992309C23.3117 0.00494434 24.986 0.528453 26.3922 1.50917C27.7984 2.48989 28.8682 3.88016 29.4559 5.49069C30.0436 7.10123 30.1207 8.85376 29.6767 10.5097C29.2327 12.1656 28.2891 13.6444 26.9744 14.7448C29.1007 15.7071 30.9304 17.2213 32.2732 19.1301C32.3929 19.2975 32.4782 19.4871 32.524 19.6878C32.5698 19.8885 32.5752 20.0962 32.54 20.2991C32.5048 20.5019 32.4296 20.6956 32.3188 20.8691C32.2081 21.0426 32.0639 21.1924 31.8947 21.3096Z" fill="rgb(76,175,79)" fill-rule="nonzero" />
	<path id="Vector" d="M16.8914 14.2346C17.9143 13.2031 18.6538 11.9192 19.0307 10.5072C19.4726 8.85191 19.3947 7.10077 18.8078 5.49119C18.2208 3.88161 17.153 2.49146 15.7493 1.50921C14.3456 0.52696 12.6737 0.00012207 10.9605 0.00012207C9.24718 0.00012207 7.57535 0.52696 6.17161 1.50921C4.76787 2.49146 3.70013 3.88161 3.11315 5.49119C2.52617 7.10077 2.44833 8.85191 2.8902 10.5072C3.2671 11.9192 4.00659 13.2031 5.02954 14.2346C5.20585 14.4124 5.39057 14.5827 5.58331 14.7448C5.3532 14.849 5.12656 14.9596 4.90364 15.0764C3.06672 16.0394 1.48203 17.4279 0.284483 19.1301C0.0461464 19.4695 -0.0478543 19.8895 0.0230995 20.2981C0.0940533 20.7067 0.324169 21.0705 0.662971 21.3096C0.925633 21.4974 1.24066 21.5978 1.56351 21.5968C1.81463 21.5975 2.06218 21.5373 2.28495 21.4214C2.50771 21.3055 2.69904 21.1372 2.84254 20.9312C3.75759 19.6279 4.97298 18.564 6.38597 17.8296C7.79896 17.0952 9.368 16.7118 10.9605 16.7118C12.5529 16.7118 14.1219 17.0952 15.5349 17.8296C16.9479 18.564 18.1633 19.6279 19.0784 20.9312C19.1918 21.1105 19.3405 21.2648 19.5154 21.3849C19.6903 21.505 19.8878 21.5883 20.0959 21.6297C20.304 21.6712 20.5183 21.6699 20.7259 21.626C20.9335 21.5821 21.13 21.4965 21.3035 21.3743C21.477 21.2522 21.6238 21.0961 21.7351 20.9154C21.8465 20.7348 21.9199 20.5335 21.951 20.3236C21.9822 20.1137 21.9703 19.8997 21.9163 19.6945C21.8622 19.4894 21.767 19.2973 21.6364 19.1301C20.4389 17.4279 18.8542 16.0394 17.0173 15.0764C16.7943 14.9596 16.5677 14.849 16.3376 14.7448C16.5303 14.5827 16.7151 14.4124 16.8914 14.2346ZM27.6547 15.0768C27.4316 14.9598 27.2047 14.8491 26.9744 14.7448C27.1677 14.583 27.353 14.413 27.5299 14.2355C28.5558 13.2057 29.298 11.9221 29.6767 10.5097C30.1207 8.85376 30.0436 7.10123 29.4559 5.49069C28.8682 3.88016 27.7984 2.48989 26.3922 1.50917C24.986 0.528453 23.3117 0.00494434 21.5973 0.00992309C20.8337 0.00865441 20.0737 0.114084 19.3394 0.323155C19.1386 0.376296 18.9503 0.468854 18.7856 0.595441C18.6209 0.722028 18.4831 0.880115 18.3801 1.0605C18.277 1.24088 18.2109 1.43995 18.1856 1.64612C18.1602 1.8523 18.1762 2.06145 18.2324 2.26141C18.2887 2.46137 18.3842 2.64814 18.5133 2.81085C18.6425 2.97355 18.8027 3.10894 18.9847 3.20913C19.1666 3.30932 19.3667 3.37232 19.5732 3.39444C19.7798 3.41657 19.9887 3.39738 20.1877 3.33801C20.6461 3.20724 21.1206 3.14134 21.5973 3.14224C22.9818 3.14224 24.3097 3.69225 25.2887 4.67129C26.2678 5.65033 26.8178 6.97819 26.8178 8.36276C26.8178 9.74732 26.2678 11.0752 25.2887 12.0542C24.3097 13.0333 22.9818 13.5833 21.5973 13.5833C21.1819 13.5833 20.7835 13.7483 20.4898 14.042C20.1961 14.3357 20.0311 14.7341 20.0311 15.1494C20.0311 15.5648 20.1961 15.9632 20.4898 16.2569C20.7835 16.5506 21.1819 16.7156 21.5973 16.7156C23.189 16.7173 24.757 17.1011 26.1696 17.8347C27.5823 18.5682 28.7982 19.6301 29.7152 20.9312C29.8602 21.1357 30.0519 21.3027 30.2743 21.4185C30.4967 21.5342 30.7435 21.5953 30.9942 21.5968C31.3171 21.5978 31.6321 21.4974 31.8947 21.3096C32.0639 21.1924 32.2081 21.0426 32.3188 20.8691C32.4296 20.6956 32.5048 20.5019 32.54 20.2991C32.5752 20.0962 32.5698 19.8885 32.524 19.6878C32.4782 19.4871 32.3929 19.2975 32.2732 19.1301C31.0758 17.4281 29.4914 16.0398 27.6547 15.0768ZM18.6182 8.01253C18.6523 8.77889 18.5656 9.55061 18.3582 10.3277C18.1508 11.1047 17.8413 11.817 17.4299 12.4644C17.0185 13.1118 16.505 13.6944 15.8895 14.2122L15.044 14.9235L16.0506 15.379C17.0754 15.8428 18.0059 16.4206 18.8419 17.1125C19.6781 17.8045 20.4198 18.6105 21.0671 19.5306L21.0771 19.5448L21.0877 19.5584C21.1244 19.6054 21.1557 19.655 21.1816 19.7073C21.2075 19.7595 21.228 19.8144 21.2432 19.872C21.2584 19.9295 21.2675 19.9874 21.2708 20.0455C21.274 20.1038 21.2713 20.1625 21.2625 20.2214C21.2538 20.2804 21.2394 20.3372 21.2194 20.392C21.1994 20.4468 21.1738 20.4996 21.1426 20.5502C21.1113 20.6009 21.0757 20.6475 21.0358 20.69C20.9958 20.7325 20.9515 20.7709 20.9028 20.8052C20.854 20.8395 20.8028 20.8684 20.7493 20.8917C20.6959 20.9149 20.6401 20.9327 20.5819 20.945C20.5236 20.9573 20.4653 20.9637 20.407 20.964C20.3487 20.9644 20.2903 20.9587 20.2319 20.9471C20.1734 20.9354 20.1173 20.9183 20.0635 20.8956C20.0098 20.8729 19.9584 20.8447 19.9094 20.8111C19.8603 20.7773 19.8155 20.7395 19.775 20.6974C19.7345 20.6554 19.6984 20.6093 19.6666 20.559L19.6576 20.5449L19.648 20.5312C19.1512 19.8235 18.5868 19.1931 17.9547 18.6399C17.3227 18.0867 16.6231 17.6108 15.8559 17.212C15.0888 16.8133 14.2972 16.5142 13.4813 16.3148C12.6654 16.1154 11.8251 16.0157 10.9605 16.0157C10.0958 16.0157 9.2555 16.1154 8.43957 16.3148C7.62367 16.5142 6.83213 16.8133 6.06496 17.212C5.30487 17.6071 4.611 18.0781 3.98334 18.6251C3.34395 19.1824 2.77327 19.8185 2.27131 20.5334C2.23113 20.5911 2.18542 20.6425 2.13415 20.6876C2.08286 20.7327 2.02601 20.7715 1.96361 20.8039C1.91214 20.8307 1.85907 20.8519 1.80441 20.8676C1.72659 20.8899 1.64553 20.901 1.56125 20.9007C1.47774 20.901 1.39757 20.8899 1.32076 20.8673C1.2307 20.8409 1.14524 20.7988 1.06439 20.741C0.966411 20.6718 0.887798 20.5904 0.828551 20.4967C0.769305 20.4031 0.729424 20.2972 0.708905 20.179C0.688273 20.0602 0.690221 19.9465 0.714751 19.8379C0.739009 19.7305 0.785354 19.628 0.853784 19.5306C1.50109 18.6105 2.2428 17.8045 3.07891 17.1125C3.91498 16.4206 4.84544 15.8428 5.87029 15.379L6.87692 14.9235L6.03141 14.2122C5.41594 13.6944 4.90248 13.1118 4.49103 12.4644C4.07958 11.817 3.77015 11.1048 3.56272 10.3277C3.35529 9.55063 3.2686 8.77892 3.30266 8.01259C3.33673 7.24625 3.49154 6.48527 3.76709 5.72967C4.04265 4.97406 4.41406 4.29208 4.88133 3.68372C5.34859 3.07536 5.91171 2.54063 6.57068 2.07952C7.22966 1.61841 7.92496 1.27258 8.65659 1.04202C9.38822 0.811468 10.1562 0.696192 10.9604 0.696192C11.7647 0.696192 12.5327 0.811469 13.2643 1.04202C13.9959 1.27258 14.6912 1.61841 15.3502 2.07952C16.0092 2.54062 16.5723 3.07534 17.0395 3.68368C17.5068 4.29205 17.8782 4.97404 18.1538 5.72967C18.4294 6.48526 18.5842 7.24621 18.6182 8.01253ZM30.9982 20.9007L30.9965 20.9007C30.926 20.9002 30.8575 20.8917 30.791 20.8752C30.7238 20.8586 30.6587 20.8338 30.5956 20.801C30.5325 20.7682 30.4749 20.729 30.4228 20.6836C30.3707 20.6382 30.3241 20.5865 30.2829 20.5285C29.7891 19.8278 29.2288 19.2029 28.6021 18.6537C27.9665 18.0969 27.2626 17.6179 26.4904 17.2169C25.7236 16.8187 24.9325 16.5198 24.1171 16.3203C23.3017 16.1207 22.462 16.0205 21.598 16.0195C21.4768 16.0195 21.3645 15.998 21.2612 15.9549C21.1594 15.9124 21.0664 15.849 20.982 15.7647C20.8971 15.6797 20.8334 15.586 20.7909 15.4834C20.7484 15.3809 20.7272 15.2696 20.7272 15.1494C20.7272 15.0293 20.7484 14.918 20.7909 14.8154C20.8334 14.7129 20.8971 14.6191 20.982 14.5342C21.067 14.4492 21.1607 14.3855 21.2632 14.3431C21.3658 14.3006 21.4771 14.2793 21.5973 14.2793C22.4142 14.2793 23.1713 14.1349 23.8686 13.8461C24.5658 13.5573 25.2033 13.1241 25.7809 12.5464C26.3586 11.9688 26.7918 11.3313 27.0806 10.634C27.3694 9.93676 27.5139 9.17967 27.5139 8.36276C27.5139 7.54584 27.3694 6.78875 27.0806 6.09147C26.7918 5.39419 26.3586 4.75674 25.7809 4.1791C25.2033 3.60146 24.5659 3.16824 23.8686 2.87942C23.1713 2.59058 22.4142 2.44617 21.5973 2.44617C21.3368 2.44568 21.0785 2.46246 20.8226 2.49651C20.5446 2.53351 20.2693 2.59088 19.9968 2.66864C19.9035 2.69642 19.8107 2.7092 19.7182 2.70697C19.6945 2.7064 19.6709 2.70486 19.6474 2.70233C19.5894 2.69612 19.5332 2.68444 19.4787 2.66728C19.4242 2.65012 19.3714 2.62749 19.3204 2.59938C19.2693 2.57127 19.222 2.53878 19.1784 2.50191C19.1347 2.46503 19.0948 2.42376 19.0585 2.37811C19.0223 2.33244 18.9912 2.28414 18.9651 2.23324C18.9391 2.18239 18.9183 2.12894 18.9025 2.07287C18.8867 2.01669 18.8766 1.96008 18.8723 1.90302C18.868 1.84613 18.8694 1.7888 18.8765 1.73105C18.8836 1.6732 18.8961 1.61717 18.9141 1.56295C18.9321 1.50872 18.9556 1.4563 18.9845 1.40569C19.0134 1.35509 19.0466 1.30826 19.0842 1.2652C19.1217 1.22214 19.1636 1.18285 19.2098 1.14733C19.256 1.11183 19.3047 1.08147 19.356 1.05627C19.4073 1.03104 19.4611 1.01097 19.5175 0.996061C19.9675 0.867987 20.4216 0.782323 20.8796 0.739068C21.1174 0.716619 21.3562 0.705593 21.5961 0.705992C22.4078 0.703637 23.1825 0.818644 23.9203 1.05101C24.6474 1.28004 25.3387 1.62307 25.994 2.08011C26.6541 2.54048 27.2182 3.07477 27.6862 3.68298C28.1542 4.29118 28.5261 4.97329 28.802 5.72932C29.0779 6.48535 29.2327 7.24671 29.2664 8.0134C29.3002 8.78007 29.2128 9.55207 29.0044 10.3294C28.7959 11.1067 28.4853 11.8189 28.0725 12.4658C27.6597 13.1128 27.1448 13.6945 26.5276 14.2111L25.678 14.9222L26.6874 15.379C27.7123 15.8428 28.6428 16.4207 29.4789 17.1126C30.315 17.8045 31.0567 18.6105 31.7039 19.5306C31.7516 19.5973 31.7889 19.6678 31.8158 19.7421C31.8277 19.7748 31.8375 19.8084 31.8453 19.8426C31.8581 19.8986 31.8652 19.9546 31.8667 20.0108C31.8682 20.0671 31.864 20.1234 31.8542 20.18C31.8444 20.2365 31.8293 20.2909 31.809 20.3433C31.7886 20.3958 31.763 20.4462 31.7321 20.4945C31.7013 20.5429 31.6664 20.5873 31.6274 20.6278C31.5884 20.6683 31.5453 20.7049 31.4981 20.7376C31.407 20.8027 31.3109 20.8483 31.2098 20.8744C31.1416 20.892 31.071 20.9008 30.9982 20.9007ZM7.20338 3.78473C6.76083 4.14792 6.37336 4.57824 6.04098 5.07568C5.70861 5.57311 5.45933 6.09575 5.29314 6.64359C5.12695 7.19144 5.04386 7.76449 5.04386 8.36276C5.04386 9.17967 5.18827 9.93676 5.47709 10.634C5.76591 11.3313 6.19915 11.9688 6.77679 12.5464C7.35444 13.1241 7.9919 13.5573 8.68918 13.8461C9.38646 14.1349 10.1435 14.2793 10.9605 14.2793C11.5587 14.2793 12.1318 14.1962 12.6797 14.0301C13.2275 13.8639 13.7501 13.6146 14.2475 13.2822C14.745 12.9498 15.1753 12.5624 15.5385 12.1198C15.9017 11.6773 16.1977 11.1796 16.4267 10.6269C16.6556 10.0742 16.7981 9.51299 16.8543 8.94325C16.9104 8.37351 16.8801 7.79525 16.7634 7.20849C16.6466 6.62175 16.4534 6.07594 16.1835 5.57106C15.9136 5.06614 15.5672 4.60215 15.1441 4.1791C14.7211 3.75607 14.2571 3.40962 13.7522 3.13974C13.2473 2.86987 12.7015 2.67657 12.1147 2.55985C11.528 2.44314 10.9497 2.41284 10.38 2.46895C9.81023 2.52506 9.24899 2.66759 8.69627 2.89654C8.14355 3.12548 7.64592 3.42154 7.20338 3.78473ZM6.61975 5.46239C6.04611 6.3209 5.73993 7.33024 5.73993 8.36276C5.73993 9.74732 6.28995 11.0752 7.26898 12.0542C8.24802 13.0333 9.57588 13.5833 10.9605 13.5833C11.993 13.5833 13.0023 13.2771 13.8608 12.7035C14.7193 12.1298 15.3885 11.3145 15.7836 10.3606C16.1787 9.40664 16.2821 8.35697 16.0807 7.34428C15.8792 6.3316 15.382 5.40139 14.6519 4.67129C13.9218 3.94119 12.9916 3.44398 11.9789 3.24255C10.9662 3.04111 9.91657 3.14449 8.96264 3.53962C8.00872 3.93475 7.19338 4.60388 6.61975 5.46239Z" fill="rgb(76,175,79)" fill-rule="evenodd" />
</svg>
