<svg viewBox="0 0 33.4113 33.4114" xmlns="http://www.w3.org/2000/svg" xmlns:xlink="http://www.w3.org/1999/xlink" width="33.411316" height="33.411377" fill="none">
	<rect id="Icon" width="33.411335" height="33.411335" x="0.000000" y="-0.000122" fill="rgb(255,255,255)" fill-opacity="0" />
	<path id="Vector" d="M2.0882 9.91893C2.0882 8.67282 2.58321 7.47774 3.46435 6.59661C4.34548 5.71547 5.54055 5.22046 6.78666 5.22046L26.6246 5.22046C27.8708 5.22046 29.0658 5.71547 29.947 6.59661C30.8281 7.47774 31.3231 8.67282 31.3231 9.91893L31.3231 23.4923C31.3231 24.7384 30.8281 25.9335 29.947 26.8146C29.0658 27.6957 27.8708 28.1908 26.6246 28.1908L6.78666 28.1908C5.54055 28.1908 4.34548 27.6957 3.46435 26.8146C2.58321 25.9335 2.0882 24.7384 2.0882 23.4923L2.0882 9.91893ZM6.78666 7.30867C6.09438 7.30867 5.43045 7.58368 4.94093 8.07319C4.45141 8.56271 4.1764 9.22664 4.1764 9.91893L4.1764 11.4851L29.2349 11.4851L29.2349 9.91893C29.2349 9.22664 28.9599 8.56271 28.4704 8.07319C27.9809 7.58368 27.3169 7.30867 26.6246 7.30867L6.78666 7.30867ZM4.1764 23.4923C4.1764 24.1846 4.45141 24.8485 4.94093 25.338C5.43045 25.8275 6.09438 26.1025 6.78666 26.1025L26.6246 26.1025C27.3169 26.1025 27.9809 25.8275 28.4704 25.338C28.9599 24.8485 29.2349 24.1846 29.2349 23.4923L29.2349 13.5733L4.1764 13.5733L4.1764 23.4923ZM21.9262 19.8379L25.0585 19.8379C25.3354 19.8379 25.601 19.9479 25.7968 20.1437C25.9926 20.3395 26.1026 20.6051 26.1026 20.882C26.1026 21.1589 25.9926 21.4245 25.7968 21.6203C25.601 21.8161 25.3354 21.9261 25.0585 21.9261L21.9262 21.9261C21.6493 21.9261 21.3837 21.8161 21.1879 21.6203C20.9921 21.4245 20.8821 21.1589 20.8821 20.882C20.8821 20.6051 20.9921 20.3395 21.1879 20.1437C21.3837 19.9479 21.6493 19.8379 21.9262 19.8379Z" fill="rgb(76,175,79)" fill-rule="nonzero" />
	<path id="Vector" d="M3.46435 6.59661C2.58321 7.47774 2.0882 8.67282 2.0882 9.91893L2.0882 23.4923C2.0882 24.7384 2.58321 25.9335 3.46435 26.8146C4.34548 27.6957 5.54055 28.1908 6.78666 28.1908L26.6246 28.1908C27.8708 28.1908 29.0658 27.6957 29.947 26.8146C30.8281 25.9335 31.3231 24.7384 31.3231 23.4923L31.3231 9.91893C31.3231 8.67282 30.8281 7.47774 29.947 6.59661C29.0658 5.71547 27.8708 5.22046 26.6246 5.22046L6.78666 5.22046C5.54055 5.22046 4.34548 5.71547 3.46435 6.59661ZM3.07734 8.38247C3.27271 7.91078 3.56578 7.47956 3.95654 7.0888C4.3473 6.69805 4.77852 6.40498 5.25021 6.2096C5.72189 6.01422 6.23405 5.91653 6.78666 5.91653L26.6246 5.91653C27.1773 5.91653 27.6894 6.01422 28.1611 6.20961C28.6328 6.40498 29.064 6.69805 29.4548 7.0888C29.8455 7.47956 30.1386 7.91079 30.334 8.38248C30.5294 8.85417 30.627 9.36631 30.627 9.91893L30.627 23.4923C30.627 24.0449 30.5294 24.5571 30.334 25.0287C30.1386 25.5004 29.8455 25.9317 29.4548 26.3224C29.064 26.7132 28.6328 27.0062 28.1611 27.2016C27.6894 27.397 27.1773 27.4947 26.6246 27.4947L6.78666 27.4947C6.23405 27.4947 5.7219 27.397 5.25021 27.2016C4.77852 27.0062 4.3473 26.7132 3.95654 26.3224C3.56578 25.9317 3.27271 25.5004 3.07734 25.0287C2.88196 24.5571 2.78427 24.0449 2.78427 23.4923L2.78427 9.91893C2.78427 9.36631 2.88196 8.85416 3.07734 8.38247ZM5.51742 6.8547C5.12777 7.0161 4.77154 7.2582 4.44874 7.581C4.12594 7.9038 3.88384 8.26003 3.72244 8.64968C3.56104 9.03934 3.48033 9.46242 3.48033 9.91893L3.48033 12.1812L29.931 12.1812L29.931 9.91893C29.931 9.46243 29.8503 9.03935 29.6889 8.6497C29.5275 8.26004 29.2854 7.9038 28.9626 7.581C28.6398 7.2582 28.2835 7.0161 27.8939 6.8547C27.5042 6.6933 27.0812 6.6126 26.6246 6.6126L6.78666 6.6126C6.33016 6.6126 5.90708 6.6933 5.51742 6.8547ZM4.94093 8.07319C5.43045 7.58368 6.09438 7.30867 6.78666 7.30867L26.6246 7.30867C27.3169 7.30867 27.9809 7.58368 28.4704 8.07319C28.9599 8.56271 29.2349 9.22664 29.2349 9.91893L29.2349 11.4851L4.1764 11.4851L4.1764 9.91893C4.1764 9.22664 4.45141 8.56271 4.94093 8.07319ZM3.72244 24.7615C3.88384 25.1512 4.12594 25.5074 4.44874 25.8302C4.77153 26.153 5.12776 26.3951 5.51741 26.5565C5.90707 26.7179 6.33015 26.7986 6.78666 26.7986L26.6246 26.7986C27.0812 26.7986 27.5042 26.7179 27.8939 26.5565C28.2835 26.3951 28.6398 26.153 28.9626 25.8302C29.2854 25.5074 29.5275 25.1512 29.6889 24.7615C29.8503 24.3719 29.931 23.9488 29.931 23.4923L29.931 12.8772L3.48033 12.8772L3.48033 23.4923C3.48033 23.9488 3.56104 24.3719 3.72244 24.7615ZM29.2349 14.2694L29.2349 23.4923C29.2349 24.1846 28.9599 24.8485 28.4704 25.338C27.9809 25.8275 27.3169 26.1025 26.6246 26.1025L6.78666 26.1025C6.09438 26.1025 5.43045 25.8275 4.94093 25.338C4.45141 24.8485 4.1764 24.1846 4.1764 23.4923L4.1764 13.5733L29.2349 13.5733L29.2349 14.2694ZM25.0585 19.8379L21.9262 19.8379C21.6493 19.8379 21.3837 19.9479 21.1879 20.1437C20.9921 20.3395 20.8821 20.6051 20.8821 20.882C20.8821 21.1589 20.9921 21.4245 21.1879 21.6203C21.3837 21.8161 21.6493 21.9261 21.9262 21.9261L25.0585 21.9261C25.3354 21.9261 25.601 21.8161 25.7968 21.6203C25.9926 21.4245 26.1026 21.1589 26.1026 20.882C26.1026 20.6051 25.9926 20.3395 25.7968 20.1437C25.601 19.9479 25.3354 19.8379 25.0585 19.8379ZM21.9262 20.534L25.0585 20.534C25.1065 20.534 25.1511 20.5425 25.1921 20.5595C25.2331 20.5765 25.2706 20.6019 25.3046 20.6359C25.3386 20.6699 25.364 20.7074 25.381 20.7484C25.398 20.7894 25.4065 20.834 25.4065 20.882C25.4065 20.9301 25.398 20.9746 25.381 21.0156C25.364 21.0567 25.3386 21.0941 25.3046 21.1281C25.2706 21.1621 25.2331 21.1876 25.1921 21.2046C25.1511 21.2216 25.1065 21.2301 25.0585 21.2301L21.9262 21.2301C21.8781 21.2301 21.8336 21.2216 21.7926 21.2046C21.7515 21.1876 21.7141 21.1621 21.6801 21.1281C21.6461 21.0941 21.6206 21.0567 21.6036 21.0156C21.5866 20.9746 21.5781 20.9301 21.5781 20.882C21.5781 20.834 21.5866 20.7894 21.6036 20.7484C21.6206 20.7074 21.6461 20.6699 21.6801 20.6359C21.7141 20.6019 21.7516 20.5765 21.7926 20.5595C21.8336 20.5425 21.8781 20.534 21.9262 20.534Z" fill="rgb(76,175,79)" fill-rule="evenodd" />
</svg>
