<svg viewBox="0 0 12.5292 12.5292" xmlns="http://www.w3.org/2000/svg" xmlns:xlink="http://www.w3.org/1999/xlink" width="12.529236" height="12.529236" fill="none">
	<rect id="Essential Icons / send" width="12.529251" height="12.529251" x="-0.000061" y="-0.000061" fill="rgb(255,255,255)" fill-opacity="0" />
	<path id="Vector" d="M11.8542 0.675076C11.996 0.816885 12.0441 1.02739 11.9778 1.21668L8.32345 11.6577C8.25274 11.8598 8.06586 11.9982 7.85199 12.0069C7.63811 12.0156 7.44058 11.8929 7.35365 11.6973L5.34699 7.1823L0.832002 5.17564C0.636399 5.08871 0.513684 4.89118 0.522409 4.67731C0.531135 4.46343 0.669533 4.27656 0.871567 4.20584L11.3126 0.551479C11.5019 0.485228 11.7124 0.533267 11.8542 0.675076ZM6.36517 6.90241L7.77296 10.0699L10.2366 3.03099L6.36517 6.90241ZM9.4983 2.29269L2.45935 4.75633L5.62688 6.16412L9.4983 2.29269Z" fill="rgb(255,255,255)" fill-rule="evenodd" />
</svg>
