<svg viewBox="0 0 11.8796 11.8797" xmlns="http://www.w3.org/2000/svg" xmlns:xlink="http://www.w3.org/1999/xlink" width="11.879593" height="11.879700" fill="none" customFrame="#000000">
	<path id="Path" d="M5.94035 -6.10352e-05C4.32718 -6.10352e-05 4.12473 0.00699254 3.49115 0.0358256C2.8588 0.0647824 2.42717 0.164894 2.0495 0.311781C1.65883 0.463495 1.32743 0.66644 0.997277 0.996721C0.666873 1.32688 0.463927 1.65827 0.311719 2.04882C0.16446 2.42662 0.0642247 2.85837 0.0357629 3.49047C0.00742482 4.12405 0 4.32663 0 5.93979C0 7.55296 0.00717732 7.75479 0.0358866 8.38837C0.0649672 9.02072 0.165078 9.45235 0.311842 9.83003C0.46368 10.2207 0.666625 10.5521 0.996906 10.8822C1.32694 11.2127 1.65833 11.4161 2.04875 11.5678C2.42668 11.7147 2.85843 11.8148 3.49065 11.8438C4.12424 11.8726 4.32657 11.8796 5.93961 11.8796C7.5529 11.8796 7.75473 11.8726 8.38831 11.8438C9.02066 11.8148 9.45278 11.7147 9.83071 11.5678C10.2213 11.4161 10.5522 11.2127 10.8822 10.8822C11.2126 10.5521 11.4155 10.2207 11.5677 9.83015C11.7138 9.45235 11.814 9.0206 11.8437 8.3885C11.8722 7.75491 11.8796 7.55296 11.8796 5.93979C11.8796 4.32663 11.8722 4.12418 11.8437 3.49059C11.814 2.85825 11.7138 2.42662 11.5677 2.04894C11.4155 1.65827 11.2126 1.32688 10.8822 0.996721C10.5518 0.666316 10.2214 0.463371 9.83034 0.311781C9.45167 0.164894 9.01979 0.0647824 8.38745 0.0358256C7.75386 0.00699254 7.55216 -6.10352e-05 5.93849 -6.10352e-05L5.94035 -6.10352e-05ZM5.40747 1.07033C5.56562 1.07009 5.74208 1.07033 5.94032 1.07033C7.52627 1.07033 7.71424 1.07603 8.34052 1.10449C8.91966 1.13097 9.23397 1.22774 9.44335 1.30904C9.72055 1.4167 9.91817 1.5454 10.1259 1.75329C10.3338 1.96119 10.4625 2.15918 10.5704 2.43638C10.6517 2.64551 10.7486 2.95983 10.775 3.53896C10.8035 4.16512 10.8096 4.35322 10.8096 5.93842C10.8096 7.52362 10.8035 7.71171 10.775 8.33787C10.7485 8.91701 10.6517 9.23132 10.5704 9.44046C10.4628 9.71765 10.3338 9.91503 10.1259 10.1228C9.91805 10.3307 9.72067 10.4594 9.44335 10.567C9.23422 10.6487 8.91966 10.7452 8.34052 10.7717C7.71436 10.8002 7.52627 10.8064 5.94032 10.8064C4.35426 10.8064 4.16629 10.8002 3.54013 10.7717C2.96099 10.745 2.64667 10.6482 2.43717 10.5669C2.15998 10.4593 1.96198 10.3306 1.75409 10.1227C1.54619 9.91478 1.4175 9.71728 1.30959 9.43996C1.22829 9.23083 1.13139 8.91651 1.10504 8.33738C1.07657 7.71122 1.07088 7.52312 1.07088 5.93693C1.07088 4.35074 1.07657 4.16364 1.10504 3.53748C1.13152 2.95834 1.22829 2.64402 1.30959 2.43464C1.41725 2.15745 1.54619 1.95946 1.75409 1.75156C1.96198 1.54367 2.15998 1.41497 2.43717 1.30706C2.64655 1.22539 2.96099 1.12887 3.54013 1.10226C4.08808 1.07751 4.30043 1.07009 5.40747 1.06885L5.40747 1.07033ZM9.11097 2.0566C8.71746 2.0566 8.39819 2.3755 8.39819 2.76913C8.39819 3.16265 8.71746 3.48192 9.11097 3.48192C9.50449 3.48192 9.82376 3.16265 9.82376 2.76913C9.82376 2.37562 9.50449 2.0566 9.11097 2.0566ZM5.94036 2.88941C4.25579 2.88941 2.89 4.25521 2.89 5.93978C2.89 7.62434 4.25579 8.98952 5.94036 8.98952C7.62493 8.98952 8.99023 7.62434 8.99023 5.93978C8.99023 4.25521 7.62493 2.88941 5.94036 2.88941ZM5.94034 3.95983C7.03376 3.95983 7.92029 4.84623 7.92029 5.93978C7.92029 7.03321 7.03376 7.91973 5.94034 7.91973C4.84678 7.91973 3.96039 7.03321 3.96039 5.93978C3.96039 4.84623 4.84678 3.95983 5.94034 3.95983Z" fill="rgb(255,255,255)" fill-rule="evenodd" />
</svg>
