<svg viewBox="0 0 10.7814 8.9097" xmlns="http://www.w3.org/2000/svg" xmlns:xlink="http://www.w3.org/1999/xlink" width="10.781433" height="8.909698" fill="none" customFrame="#000000">
	<path id="Path" d="M5.235 2.36999L5.25837 2.75536L4.86886 2.70818C3.45105 2.52729 2.21241 1.91384 1.16074 0.883571L0.646585 0.372367L0.514152 0.749871C0.233705 1.59139 0.412879 2.4801 0.997143 3.07782C1.30875 3.40813 1.23864 3.45532 0.701116 3.2587C0.514152 3.19579 0.350558 3.1486 0.334978 3.17219C0.280446 3.22724 0.467411 3.94293 0.615424 4.22606C0.817969 4.61929 1.23085 5.00466 1.68268 5.23274L2.0644 5.41362L1.61257 5.42149C1.17632 5.42149 1.16074 5.42935 1.20748 5.59451C1.36328 6.10572 1.97871 6.64838 2.66424 6.88432L3.14723 7.04948L2.72656 7.30115C2.10335 7.66292 1.37107 7.8674 0.638795 7.88313C0.288237 7.891 0 7.92246 0 7.94605C0 8.0247 0.950402 8.46512 1.5035 8.63814C3.16281 9.14935 5.13373 8.92914 6.61386 8.05616C7.66554 7.43485 8.71721 6.20009 9.20799 5.00466C9.47286 4.36762 9.73772 3.20365 9.73772 2.64526C9.73772 2.28348 9.7611 2.2363 10.1973 1.80374C10.4544 1.55207 10.6959 1.2768 10.7427 1.19816C10.8206 1.04873 10.8128 1.04873 10.4155 1.18243C9.7533 1.41837 9.65982 1.38691 9.98701 1.033C10.2285 0.78133 10.5167 0.325179 10.5167 0.191479C10.5167 0.167885 10.3999 0.207209 10.2675 0.277991C10.1272 0.356637 9.81563 0.474608 9.58192 0.54539L9.16125 0.679089L8.77953 0.419555C8.5692 0.277991 8.27317 0.120697 8.11737 0.073509C7.72007 -0.0365965 7.11243 -0.0208671 6.75409 0.104968C5.78031 0.458878 5.16489 1.37118 5.235 2.36999Z" fill="rgb(255,255,255)" fill-rule="evenodd" />
</svg>
